<svg xmlns="http://www.w3.org/2000/svg" xmlns:xlink="http://www.w3.org/1999/xlink" width="40" zoomAndPan="magnify" viewBox="0 0 30 30.000001" height="40" preserveAspectRatio="xMidYMid meet" version="1.0"><defs><g/><clipPath id="385978564b"><path d="M 1.429688 1.023438 L 28.570312 1.023438 L 28.570312 28.160156 L 1.429688 28.160156 Z M 1.429688 1.023438 " clip-rule="nonzero"/></clipPath><clipPath id="4d994c4dca"><path d="M 15 1.023438 C 7.503906 1.023438 1.429688 7.097656 1.429688 14.589844 C 1.429688 22.085938 7.503906 28.160156 15 28.160156 C 22.496094 28.160156 28.570312 22.085938 28.570312 14.589844 C 28.570312 7.097656 22.496094 1.023438 15 1.023438 Z M 15 1.023438 " clip-rule="nonzero"/></clipPath><clipPath id="fb03e06e18"><path d="M 5.496094 1.023438 L 17.109375 1.023438 L 17.109375 6.828125 L 5.496094 6.828125 Z M 5.496094 1.023438 " clip-rule="nonzero"/></clipPath></defs><g clip-path="url(#385978564b)"><g clip-path="url(#4d994c4dca)"><path fill="#c0f0f7" d="M 1.429688 1.023438 L 28.570312 1.023438 L 28.570312 28.160156 L 1.429688 28.160156 Z M 1.429688 1.023438 " fill-opacity="1" fill-rule="nonzero"/></g></g><g fill="#000000" fill-opacity="1"><g transform="translate(3.486402, 20.775534)"><g><path d="M 15.046875 0 L 11.78125 0 L 10.609375 -3.609375 L 4.609375 -3.609375 L 3.421875 0 L 0.234375 0 L 5.65625 -15.6875 L 9.625 -15.6875 Z M 7.453125 -12.40625 L 5.4375 -6.21875 L 9.75 -6.21875 L 7.71875 -12.40625 Z M 7.453125 -12.40625 "/></g></g></g><g fill="#0990a4" fill-opacity="1"><g transform="translate(18.777299, 20.775534)"><g><path d="M 3.1875 -13.25 C 2.644531 -13.25 2.207031 -13.410156 1.875 -13.734375 C 1.539062 -14.054688 1.375 -14.476562 1.375 -15 C 1.375 -15.507812 1.539062 -15.925781 1.875 -16.25 C 2.207031 -16.570312 2.644531 -16.734375 3.1875 -16.734375 C 3.539062 -16.734375 3.859375 -16.65625 4.140625 -16.5 C 4.421875 -16.351562 4.632812 -16.148438 4.78125 -15.890625 C 4.9375 -15.628906 5.015625 -15.332031 5.015625 -15 C 5.015625 -14.65625 4.9375 -14.351562 4.78125 -14.09375 C 4.632812 -13.832031 4.421875 -13.625 4.140625 -13.46875 C 3.859375 -13.320312 3.539062 -13.25 3.1875 -13.25 Z M 0.921875 5.015625 C 0.046875 5.015625 -0.65625 4.898438 -1.1875 4.671875 L -0.8125 2.34375 L -0.609375 2.28125 C -0.328125 2.414062 0.00390625 2.484375 0.390625 2.484375 C 1.265625 2.484375 1.703125 1.96875 1.703125 0.9375 L 1.703125 -11.828125 L 4.671875 -11.828125 L 4.671875 0.84375 C 4.671875 2.226562 4.351562 3.269531 3.71875 3.96875 C 3.082031 4.664062 2.148438 5.015625 0.921875 5.015625 Z M 0.921875 5.015625 "/></g></g></g><g clip-path="url(#fb03e06e18)"><path fill="#000000" d="M 16.898438 5.289062 C 17.054688 5.609375 17.054688 6.363281 17.054688 6.363281 C 17.035156 6.378906 17.019531 6.386719 17 6.398438 L 16.886719 5.914062 C 16.886719 5.914062 16.855469 6.234375 16.863281 6.421875 C 16.644531 6.496094 16.519531 6.378906 16.519531 6.378906 C 16.457031 5.78125 16.523438 5.445312 16.574219 5.28125 C 16.535156 5.238281 16.511719 5.183594 16.511719 5.125 C 16.507812 5.023438 16.566406 4.9375 16.652344 4.902344 L 16.640625 3.808594 L 15.21875 4.46875 C 15.109375 4.515625 14.988281 4.441406 14.984375 4.320312 L 14.96875 3.886719 C 14.964844 3.832031 14.9375 3.785156 14.894531 3.753906 C 12.667969 2.253906 10.847656 2.371094 9.710938 2.730469 C 8.472656 3.121094 7.777344 3.867188 7.746094 3.898438 C 7.714844 3.929688 7.699219 3.972656 7.699219 4.019531 L 7.707031 4.5 C 7.707031 4.621094 7.585938 4.707031 7.476562 4.660156 L 5.644531 3.890625 C 5.507812 3.835938 5.507812 3.640625 5.636719 3.578125 L 11.15625 1.042969 C 11.195312 1.023438 11.242188 1.023438 11.285156 1.039062 L 16.957031 3.351562 C 17.09375 3.40625 17.097656 3.601562 16.964844 3.664062 L 16.773438 3.75 L 16.789062 4.890625 C 16.890625 4.914062 16.964844 5.003906 16.96875 5.113281 C 16.972656 5.179688 16.945312 5.242188 16.898438 5.289062 Z M 7.980469 4.125 C 7.96875 4.132812 7.964844 4.144531 7.964844 4.15625 L 7.964844 6.769531 C 7.964844 6.800781 7.996094 6.820312 8.023438 6.804688 C 8.4375 6.546875 10.972656 5.132812 14.675781 6.816406 C 14.703125 6.828125 14.730469 6.808594 14.730469 6.78125 L 14.730469 4.042969 C 14.730469 4.027344 14.726562 4.015625 14.714844 4.007812 C 14.453125 3.820312 11.066406 1.460938 7.980469 4.125 Z M 7.980469 4.125 " fill-opacity="1" fill-rule="nonzero"/></g><path stroke-linecap="butt" transform="matrix(0.056996, 0.723565, -0.723565, 0.056996, 17.081854, 4.920177)" fill="none" stroke-linejoin="miter" d="M 0.000604329 0.501873 L 3.002321 0.500783 " stroke="#ffde59" stroke-width="1" stroke-opacity="1" stroke-miterlimit="4"/></svg>