<svg xmlns="http://www.w3.org/2000/svg" xmlns:xlink="http://www.w3.org/1999/xlink" width="40" zoomAndPan="magnify" viewBox="0 0 30 30.000001" height="40" preserveAspectRatio="xMidYMid meet" version="1.0"><defs><g/><clipPath id="43641429ad"><path d="M 1.429688 1.023438 L 28.570312 1.023438 L 28.570312 28.160156 L 1.429688 28.160156 Z M 1.429688 1.023438 " clip-rule="nonzero"/></clipPath><clipPath id="29e2c2996c"><path d="M 15 1.023438 C 7.503906 1.023438 1.429688 7.097656 1.429688 14.589844 C 1.429688 22.085938 7.503906 28.160156 15 28.160156 C 22.496094 28.160156 28.570312 22.085938 28.570312 14.589844 C 28.570312 7.097656 22.496094 1.023438 15 1.023438 Z M 15 1.023438 " clip-rule="nonzero"/></clipPath></defs><g clip-path="url(#43641429ad)"><g clip-path="url(#29e2c2996c)"><path fill="#c0f0f7" d="M 1.429688 1.023438 L 28.570312 1.023438 L 28.570312 28.160156 L 1.429688 28.160156 Z M 1.429688 1.023438 " fill-opacity="1" fill-rule="nonzero"/></g></g><g fill="#000000" fill-opacity="1"><g transform="translate(3.486402, 20.775534)"><g><path d="M 15.046875 0 L 11.78125 0 L 10.609375 -3.609375 L 4.609375 -3.609375 L 3.421875 0 L 0.234375 0 L 5.65625 -15.6875 L 9.625 -15.6875 Z M 7.453125 -12.40625 L 5.4375 -6.21875 L 9.75 -6.21875 L 7.71875 -12.40625 Z M 7.453125 -12.40625 "/></g></g></g><g fill="#0990a4" fill-opacity="1"><g transform="translate(18.777299, 20.775534)"><g><path d="M 3.1875 -13.25 C 2.644531 -13.25 2.207031 -13.410156 1.875 -13.734375 C 1.539062 -14.054688 1.375 -14.476562 1.375 -15 C 1.375 -15.507812 1.539062 -15.925781 1.875 -16.25 C 2.207031 -16.570312 2.644531 -16.734375 3.1875 -16.734375 C 3.539062 -16.734375 3.859375 -16.65625 4.140625 -16.5 C 4.421875 -16.351562 4.632812 -16.148438 4.78125 -15.890625 C 4.9375 -15.628906 5.015625 -15.332031 5.015625 -15 C 5.015625 -14.65625 4.9375 -14.351562 4.78125 -14.09375 C 4.632812 -13.832031 4.421875 -13.625 4.140625 -13.46875 C 3.859375 -13.320312 3.539062 -13.25 3.1875 -13.25 Z M 0.921875 5.015625 C 0.046875 5.015625 -0.65625 4.898438 -1.1875 4.671875 L -0.8125 2.34375 L -0.609375 2.28125 C -0.328125 2.414062 0.00390625 2.484375 0.390625 2.484375 C 1.265625 2.484375 1.703125 1.96875 1.703125 0.9375 L 1.703125 -11.828125 L 4.671875 -11.828125 L 4.671875 0.84375 C 4.671875 2.226562 4.351562 3.269531 3.71875 3.96875 C 3.082031 4.664062 2.148438 5.015625 0.921875 5.015625 Z M 0.921875 5.015625 "/></g></g></g></svg>