<svg xmlns="http://www.w3.org/2000/svg" xmlns:xlink="http://www.w3.org/1999/xlink" width="640" zoomAndPan="magnify" viewBox="0 0 480 322.499991" height="430" preserveAspectRatio="xMidYMid meet" version="1.0"><path fill="#107b86" d="M 350.839844 154.179688 C 348.457031 153.085938 346.335938 151.605469 344.535156 149.675781 L 330.25 134.359375 L 318.34375 161.128906 L 322.71875 166.535156 C 331.664062 177.601562 345.371094 183.84375 359.589844 183.328125 L 367.3125 183.070312 L 379.28125 156.304688 L 358.367188 155.851562 C 355.792969 155.789062 353.222656 155.210938 350.839844 154.179688 Z M 350.839844 154.179688 " fill-opacity="1" fill-rule="nonzero"/><path fill="#107b86" d="M 319.375 147.359375 C 320.402344 145.105469 320.144531 143.304688 319.179688 142.144531 L 326.773438 125.15625 L 347.234375 147.101562 C 350.132812 150.191406 354.1875 151.992188 358.433594 152.121094 L 397.8125 152.957031 C 400.453125 153.019531 401.867188 149.867188 400.066406 147.9375 L 373.234375 119.238281 C 370.335938 116.148438 366.285156 114.347656 362.035156 114.21875 L 322.65625 113.382812 C 320.015625 113.316406 318.601562 116.472656 320.402344 118.402344 L 324.90625 123.226562 L 316.929688 140.988281 C 315.320312 140.792969 313.710938 141.953125 313.003906 143.5625 C 311.523438 146.84375 313.519531 147.359375 311.394531 154.113281 C 311.136719 157.398438 318.535156 149.289062 319.375 147.359375 Z M 319.375 147.359375 " fill-opacity="1" fill-rule="nonzero"/><path fill="#107b86" d="M 239.902344 192.402344 C 264.613281 192.402344 284.625 164.988281 284.625 140.28125 C 284.625 115.570312 264.613281 95.492188 239.902344 95.492188 C 215.191406 95.492188 195.179688 115.507812 195.179688 140.28125 C 195.179688 164.988281 215.191406 192.402344 239.902344 192.402344 Z M 239.902344 192.402344 " fill-opacity="1" fill-rule="nonzero"/><path fill="#107b86" d="M 380.632812 209.070312 L 346.851562 220.910156 L 292.863281 201.023438 C 292.667969 200.960938 292.476562 200.898438 292.28125 200.832031 C 289.773438 199.867188 287.132812 199.289062 284.304688 199.289062 L 195.566406 199.289062 C 192.734375 199.289062 190.03125 199.867188 187.585938 200.832031 C 187.394531 200.898438 187.203125 200.960938 187.007812 201.023438 L 133.019531 220.910156 L 99.171875 209.070312 C 91.320312 206.300781 82.699219 210.421875 79.996094 218.269531 C 77.230469 226.121094 81.410156 234.742188 89.261719 237.511719 L 128.195312 251.152344 C 129.800781 251.730469 131.476562 251.988281 133.210938 251.988281 C 134.949219 251.988281 136.75 251.667969 138.425781 251.089844 L 172.015625 238.734375 L 164.292969 304.691406 C 162.75 313.699219 169.632812 322 178.835938 322 L 301.226562 322 C 310.363281 322 317.3125 313.699219 315.769531 304.691406 L 308.046875 238.734375 L 341.636719 251.089844 C 343.3125 251.730469 345.046875 251.988281 346.851562 251.988281 C 348.523438 251.988281 350.195312 251.730469 351.871094 251.152344 L 390.800781 237.511719 C 398.652344 234.742188 402.769531 226.1875 400.003906 218.335938 C 397.105469 210.421875 388.484375 206.300781 380.632812 209.070312 Z M 380.632812 209.070312 " fill-opacity="1" fill-rule="nonzero"/><path fill="#107b86" d="M 118.089844 127.089844 C 118.285156 127.023438 118.476562 126.894531 118.605469 126.703125 C 118.667969 126.636719 118.667969 126.574219 118.734375 126.574219 C 118.796875 126.445312 118.863281 126.316406 118.925781 126.1875 C 118.992188 126.058594 118.992188 125.867188 118.992188 125.738281 C 118.992188 125.285156 118.667969 124.964844 118.21875 124.835938 C 118.027344 124.773438 117.769531 124.773438 117.511719 124.773438 L 100.074219 127.601562 C 100.007812 127.601562 99.878906 127.667969 99.816406 127.667969 C 99.558594 127.730469 99.300781 127.925781 99.171875 128.117188 C 98.914062 128.375 98.785156 128.699219 98.785156 129.082031 C 98.785156 129.339844 98.914062 129.597656 99.171875 129.792969 C 99.300781 129.855469 99.429688 129.921875 99.558594 129.984375 C 99.621094 129.984375 99.6875 130.046875 99.75 130.046875 C 99.878906 130.113281 100.074219 130.113281 100.265625 130.046875 L 117.703125 127.21875 C 117.832031 127.152344 117.960938 127.152344 118.089844 127.089844 Z M 118.089844 127.089844 " fill-opacity="1" fill-rule="nonzero"/><path fill="#107b86" d="M 122.144531 137.382812 C 122.210938 137.382812 122.273438 137.320312 122.335938 137.320312 C 122.917969 137.0625 123.304688 136.546875 123.238281 135.96875 C 123.175781 135.261719 122.53125 134.875 121.757812 135.003906 L 104.320312 137.835938 C 103.546875 137.964844 102.96875 138.605469 103.03125 139.25 C 103.097656 139.894531 103.742188 140.34375 104.511719 140.214844 L 121.953125 137.382812 C 122.015625 137.382812 122.082031 137.382812 122.144531 137.382812 Z M 122.144531 137.382812 " fill-opacity="1" fill-rule="nonzero"/><path fill="#107b86" d="M 107.730469 148.515625 C 107.472656 148.773438 107.34375 149.097656 107.34375 149.480469 C 107.410156 150.191406 108.050781 150.574219 108.824219 150.445312 L 126.261719 147.617188 C 126.328125 147.617188 126.390625 147.617188 126.457031 147.550781 C 126.519531 147.550781 126.585938 147.488281 126.648438 147.488281 C 126.84375 147.421875 127.035156 147.292969 127.164062 147.101562 C 127.421875 146.84375 127.613281 146.523438 127.550781 146.136719 C 127.484375 145.492188 126.84375 145.042969 126.070312 145.171875 L 108.632812 148 C 108.308594 148.066406 107.988281 148.257812 107.730469 148.515625 Z M 107.730469 148.515625 " fill-opacity="1" fill-rule="nonzero"/><path fill="#107b86" d="M 112.621094 158.296875 C 112.429688 158.363281 112.300781 158.425781 112.171875 158.554688 C 111.785156 158.8125 111.589844 159.261719 111.589844 159.648438 C 111.589844 159.90625 111.71875 160.164062 111.976562 160.355469 C 112.105469 160.421875 112.234375 160.484375 112.363281 160.550781 C 112.558594 160.613281 112.8125 160.679688 113.070312 160.613281 L 130.511719 157.78125 C 130.640625 157.78125 130.765625 157.71875 130.894531 157.652344 C 131.089844 157.589844 131.28125 157.460938 131.410156 157.269531 C 131.476562 157.203125 131.476562 157.140625 131.539062 157.140625 C 131.605469 157.011719 131.667969 156.882812 131.734375 156.753906 C 131.796875 156.625 131.796875 156.429688 131.796875 156.304688 C 131.796875 156.175781 131.734375 156.046875 131.667969 155.917969 C 131.539062 155.660156 131.28125 155.53125 131.023438 155.402344 C 130.832031 155.335938 130.574219 155.335938 130.316406 155.335938 L 112.878906 158.167969 C 112.8125 158.234375 112.75 158.296875 112.621094 158.296875 Z M 112.621094 158.296875 " fill-opacity="1" fill-rule="nonzero"/><path fill="#107b86" d="M 96.277344 172.710938 C 96.339844 172.839844 96.40625 172.96875 96.46875 173.164062 C 98.785156 178.246094 105.671875 180.113281 111.914062 177.539062 L 141.707031 165.183594 L 143.507812 164.410156 L 143.574219 164.410156 L 173.300781 151.925781 C 179.480469 149.351562 182.953125 143.113281 181.023438 137.835938 C 180.960938 137.707031 180.894531 137.578125 180.894531 137.382812 L 164.164062 97.359375 L 159.015625 100.191406 L 157.214844 95.816406 L 152.453125 99.03125 L 150.652344 94.65625 L 126.777344 111.773438 C 124.652344 113.316406 123.496094 116.085938 123.496094 119.109375 C 121.308594 116.984375 118.605469 115.828125 115.96875 116.277344 L 87.140625 121.039062 L 88.941406 125.414062 L 83.277344 126.574219 L 85.078125 130.949219 L 79.480469 132.621094 Z M 155.476562 99.484375 L 171.371094 137.449219 C 172.851562 140.988281 171.886719 145.105469 169.183594 146.972656 L 157.792969 153.472656 L 165.257812 148.066406 C 168.539062 145.683594 169.503906 140.410156 167.511719 135.648438 L 153.097656 101.15625 Z M 126.328125 117.179688 C 126.585938 115.503906 127.355469 114.15625 128.320312 113.445312 L 148.914062 98.519531 L 164.871094 136.742188 C 166.675781 140.988281 165.644531 145.042969 163.714844 146.457031 L 143.121094 161.386719 L 127.164062 123.164062 C 126.457031 121.425781 126.199219 119.753906 126.261719 118.273438 C 126.261719 117.886719 126.328125 117.5 126.328125 117.179688 Z M 115.96875 118.59375 C 117.125 118.402344 118.605469 118.789062 120.019531 119.816406 C 120.277344 120.011719 120.601562 120.269531 120.859375 120.523438 C 121.953125 121.554688 122.980469 122.90625 123.6875 124.578125 L 139.648438 162.800781 L 114.550781 166.921875 C 112.105469 167.304688 108.566406 165.183594 106.828125 160.9375 L 90.871094 122.714844 Z M 89.839844 127.539062 L 104.253906 162.03125 C 106.25 166.855469 110.625 169.816406 114.679688 169.171875 L 123.816406 167.628906 L 111.207031 171.167969 C 107.921875 171.8125 104.382812 169.558594 102.90625 166.019531 L 87.011719 128.054688 Z M 89.839844 127.539062 " fill-opacity="1" fill-rule="nonzero"/><path fill="#107b86" d="M 132.957031 120.847656 C 133.082031 120.78125 133.210938 120.71875 133.339844 120.652344 L 147.625 110.230469 C 148.269531 109.777344 148.398438 109.007812 147.949219 108.492188 C 147.882812 108.425781 147.820312 108.363281 147.753906 108.296875 C 147.625 108.171875 147.433594 108.171875 147.242188 108.105469 C 146.984375 108.042969 146.726562 108.042969 146.46875 108.171875 C 146.277344 108.234375 146.148438 108.296875 146.019531 108.425781 L 131.734375 118.851562 C 131.089844 119.300781 130.960938 120.074219 131.410156 120.589844 C 131.734375 121.039062 132.375 121.105469 132.957031 120.847656 Z M 132.957031 120.847656 " fill-opacity="1" fill-rule="nonzero"/><path fill="#107b86" d="M 135.59375 130.820312 C 135.785156 131.015625 136.042969 131.144531 136.300781 131.207031 C 136.367188 131.207031 136.429688 131.207031 136.496094 131.207031 C 136.496094 131.207031 136.429688 131.207031 136.429688 131.207031 C 136.496094 131.207031 136.625 131.207031 136.6875 131.207031 C 136.75 131.207031 136.75 131.207031 136.75 131.207031 C 136.75 131.207031 136.816406 131.207031 136.816406 131.207031 C 136.816406 131.207031 136.816406 131.207031 136.75 131.207031 C 136.878906 131.207031 137.007812 131.144531 137.074219 131.144531 C 137.203125 131.078125 137.332031 131.015625 137.394531 130.949219 L 151.679688 120.523438 C 152.324219 120.074219 152.453125 119.300781 152.003906 118.789062 C 151.679688 118.402344 151.101562 118.273438 150.523438 118.464844 C 150.328125 118.53125 150.199219 118.59375 150.007812 118.722656 L 135.722656 129.148438 C 135.335938 129.535156 135.144531 130.304688 135.59375 130.820312 Z M 135.59375 130.820312 " fill-opacity="1" fill-rule="nonzero"/><path fill="#107b86" d="M 139.839844 140.988281 C 140.226562 141.375 140.804688 141.503906 141.386719 141.246094 C 141.386719 141.246094 141.449219 141.246094 141.449219 141.246094 C 141.511719 141.246094 141.511719 141.179688 141.511719 141.179688 C 141.578125 141.117188 141.707031 141.117188 141.769531 141.050781 L 156.054688 130.628906 C 156.699219 130.175781 156.828125 129.40625 156.378906 128.890625 C 156.25 128.761719 156.121094 128.632812 155.925781 128.570312 C 155.800781 128.503906 155.542969 128.441406 155.414062 128.441406 C 155.089844 128.441406 154.707031 128.570312 154.449219 128.761719 L 140.226562 139.25 C 139.582031 139.699219 139.453125 140.472656 139.839844 140.988281 Z M 139.839844 140.988281 " fill-opacity="1" fill-rule="nonzero"/><path fill="#107b86" d="M 144.152344 151.21875 C 144.539062 151.667969 145.179688 151.734375 145.761719 151.476562 C 145.890625 151.414062 146.019531 151.347656 146.148438 151.285156 L 160.433594 140.859375 C 160.496094 140.792969 160.625 140.730469 160.691406 140.601562 C 160.753906 140.472656 160.816406 140.410156 160.882812 140.34375 C 161.011719 140.152344 161.011719 139.957031 161.011719 139.765625 C 161.011719 139.636719 161.011719 139.507812 160.945312 139.445312 C 160.882812 139.316406 160.816406 139.1875 160.753906 139.121094 C 160.691406 139.058594 160.625 138.992188 160.5625 138.929688 C 160.433594 138.800781 160.238281 138.800781 160.046875 138.734375 C 159.789062 138.671875 159.53125 138.671875 159.273438 138.800781 C 159.210938 138.800781 159.144531 138.863281 159.015625 138.929688 C 158.953125 138.992188 158.886719 138.992188 158.757812 139.058594 L 144.472656 149.480469 C 143.832031 149.933594 143.703125 150.703125 144.152344 151.21875 Z M 144.152344 151.21875 " fill-opacity="1" fill-rule="nonzero"/><path fill="#107b86" d="M 211.269531 65.054688 C 211.394531 65.25 211.589844 65.378906 211.71875 65.570312 C 218.796875 73.101562 228.382812 77.410156 238.746094 77.734375 C 238.9375 77.734375 239.128906 77.734375 239.386719 77.734375 C 239.582031 77.734375 239.710938 77.734375 239.902344 77.734375 C 240.097656 77.734375 240.222656 77.734375 240.417969 77.734375 C 251.871094 77.605469 262.230469 72.390625 269.246094 64.285156 C 270.210938 63.125 271.175781 61.96875 272.011719 60.679688 C 276.003906 54.824219 278.449219 47.746094 278.640625 40.152344 C 278.898438 31.917969 276.582031 24.003906 272.011719 17.375 C 271.175781 16.152344 270.273438 14.929688 269.246094 13.769531 C 268.859375 13.320312 268.472656 12.871094 268.085938 12.484375 C 261.007812 4.953125 251.421875 0.644531 241.0625 0.320312 C 230.699219 0 220.855469 3.730469 213.328125 10.875 C 212.617188 11.582031 211.910156 12.289062 211.269531 13 C 210.238281 14.09375 209.273438 15.316406 208.4375 16.539062 C 203.996094 22.714844 201.488281 30.113281 201.230469 37.964844 C 200.972656 46.523438 203.546875 54.824219 208.4375 61.644531 C 209.335938 62.738281 210.238281 63.898438 211.269531 65.054688 Z M 250.777344 71.425781 C 253.414062 68.210938 255.539062 63.898438 257.148438 58.75 C 259.785156 59.457031 262.230469 60.292969 264.417969 61.324219 C 264.742188 61.453125 265.0625 61.644531 265.386719 61.839844 C 261.460938 66.214844 256.441406 69.5625 250.777344 71.425781 Z M 268.214844 58.234375 C 265.386719 56.691406 262.039062 55.402344 258.242188 54.4375 C 259.207031 50.0625 259.785156 45.238281 259.851562 40.152344 L 274.136719 40.152344 C 273.878906 46.78125 271.753906 53.023438 268.214844 58.234375 Z M 268.214844 19.753906 C 271.433594 24.453125 273.429688 29.859375 273.941406 35.585938 L 259.785156 35.585938 C 259.59375 31.335938 259.078125 27.285156 258.242188 23.550781 C 262.039062 22.585938 265.386719 21.300781 268.214844 19.753906 Z M 264.804688 15.507812 C 265 15.699219 265.191406 15.894531 265.386719 16.152344 C 265.0625 16.34375 264.742188 16.472656 264.355469 16.667969 C 262.167969 17.695312 259.722656 18.53125 257.082031 19.242188 C 255.476562 14.09375 253.289062 9.78125 250.648438 6.5625 C 256.054688 8.238281 260.878906 11.324219 264.804688 15.507812 Z M 242.414062 5.46875 C 245.308594 6.757812 248.074219 9.78125 250.261719 14.222656 C 251.164062 16.023438 251.9375 18.019531 252.644531 20.140625 C 249.363281 20.71875 245.886719 20.976562 242.285156 21.042969 Z M 242.285156 25.546875 C 246.335938 25.480469 250.261719 25.160156 253.867188 24.515625 C 254.636719 27.992188 255.152344 31.722656 255.347656 35.585938 L 242.21875 35.585938 Z M 242.15625 40.089844 L 255.347656 40.089844 C 255.28125 44.785156 254.765625 49.292969 253.800781 53.472656 C 250.132812 52.832031 246.144531 52.445312 242.027344 52.445312 Z M 242.089844 56.949219 C 245.757812 56.949219 249.363281 57.269531 252.707031 57.847656 C 252.066406 59.972656 251.226562 61.96875 250.328125 63.769531 C 248.011719 68.46875 245.050781 71.621094 241.960938 72.714844 Z M 215.191406 62.609375 C 217.507812 61.386719 220.148438 60.359375 222.980469 59.523438 C 224.523438 64.347656 226.648438 68.402344 229.15625 71.492188 C 223.878906 69.691406 219.117188 66.730469 215.191406 62.609375 Z M 237.457031 72.519531 C 234.5625 71.234375 231.792969 68.210938 229.605469 63.769531 C 228.769531 62.097656 228.0625 60.292969 227.417969 58.363281 C 230.636719 57.65625 234.046875 57.207031 237.585938 57.011719 Z M 237.585938 52.507812 C 233.597656 52.703125 229.800781 53.214844 226.132812 53.988281 C 225.101562 49.675781 224.523438 44.980469 224.460938 40.023438 L 237.652344 40.023438 Z M 237.714844 35.585938 L 224.585938 35.585938 C 224.78125 31.53125 225.296875 27.542969 226.195312 23.9375 C 229.863281 24.710938 233.789062 25.226562 237.84375 25.480469 Z M 237.90625 5.277344 L 237.777344 20.976562 C 234.175781 20.785156 230.636719 20.335938 227.355469 19.625 C 228 17.695312 228.707031 15.894531 229.542969 14.222656 C 231.921875 9.523438 234.882812 6.371094 237.90625 5.277344 Z M 216.480469 14.09375 C 220.148438 10.617188 224.523438 8.042969 229.15625 6.5 C 226.648438 9.589844 224.523438 13.640625 222.980469 18.46875 C 220.148438 17.632812 217.507812 16.601562 215.191406 15.378906 C 215.578125 14.929688 216.03125 14.476562 216.480469 14.09375 Z M 212.234375 18.917969 C 212.363281 18.984375 212.554688 19.113281 212.746094 19.175781 C 215.449219 20.65625 218.476562 21.878906 221.820312 22.84375 C 220.917969 26.769531 220.277344 31.082031 220.082031 35.585938 L 205.925781 35.585938 C 206.503906 29.535156 208.695312 23.746094 212.234375 18.917969 Z M 219.953125 40.089844 C 220.019531 45.496094 220.664062 50.578125 221.757812 55.148438 C 218.476562 56.113281 215.386719 57.335938 212.683594 58.816406 C 212.554688 58.878906 212.363281 59.007812 212.234375 59.070312 C 208.179688 53.539062 205.925781 46.972656 205.734375 40.089844 C 205.734375 40.089844 219.953125 40.089844 219.953125 40.089844 Z M 219.953125 40.089844 " fill-opacity="1" fill-rule="nonzero"/><path fill="#107b86" d="M 350.453125 74.835938 C 351.417969 76.1875 352.964844 76.898438 354.507812 76.898438 C 355.539062 76.898438 356.566406 76.574219 357.46875 75.929688 C 359.71875 74.257812 360.171875 71.167969 358.5625 68.917969 C 356.117188 65.570312 353.476562 62.289062 350.777344 59.136719 C 348.972656 57.078125 345.757812 56.820312 343.695312 58.621094 C 341.636719 60.421875 341.378906 63.640625 343.183594 65.699219 C 345.757812 68.660156 348.203125 71.683594 350.453125 74.835938 Z M 350.453125 74.835938 " fill-opacity="1" fill-rule="nonzero"/><path fill="#107b86" d="M 121.050781 77.863281 C 121.953125 78.503906 122.917969 78.761719 123.945312 78.761719 C 125.492188 78.761719 127.097656 77.992188 128.066406 76.640625 C 130.316406 73.484375 132.699219 70.398438 135.207031 67.4375 C 137.007812 65.3125 136.75 62.160156 134.628906 60.359375 C 132.503906 58.558594 129.351562 58.816406 127.550781 60.9375 C 124.847656 64.089844 122.273438 67.4375 119.890625 70.785156 C 118.21875 73.101562 118.796875 76.253906 121.050781 77.863281 Z M 121.050781 77.863281 " fill-opacity="1" fill-rule="nonzero"/><path fill="#107b86" d="M 365.832031 101.671875 C 366.667969 103.601562 368.472656 104.695312 370.464844 104.695312 C 371.109375 104.695312 371.816406 104.566406 372.460938 104.308594 C 375.035156 103.214844 376.191406 100.253906 375.097656 97.746094 C 373.492188 93.949219 371.625 90.152344 369.695312 86.484375 C 368.40625 84.039062 365.316406 83.136719 362.875 84.425781 C 360.429688 85.710938 359.527344 88.800781 360.8125 91.246094 C 362.617188 94.59375 364.289062 98.132812 365.832031 101.671875 Z M 365.832031 101.671875 " fill-opacity="1" fill-rule="nonzero"/><path fill="#107b86" d="M 320.402344 44.851562 C 323.492188 47.101562 326.582031 49.546875 329.476562 52.058594 C 330.441406 52.894531 331.597656 53.28125 332.757812 53.28125 C 334.171875 53.28125 335.589844 52.703125 336.554688 51.542969 C 338.355469 49.417969 338.164062 46.265625 336.039062 44.464844 C 332.886719 41.761719 329.605469 39.125 326.257812 36.679688 C 324.007812 35.070312 320.851562 35.519531 319.246094 37.773438 C 317.699219 40.023438 318.214844 43.179688 320.402344 44.851562 Z M 320.402344 44.851562 " fill-opacity="1" fill-rule="nonzero"/><path fill="#107b86" d="M 145.308594 54.824219 C 146.46875 54.824219 147.691406 54.375 148.65625 53.539062 C 151.550781 50.964844 154.578125 48.519531 157.664062 46.136719 C 159.851562 44.464844 160.304688 41.3125 158.695312 39.125 C 157.023438 36.9375 153.867188 36.484375 151.679688 38.160156 C 148.398438 40.667969 145.117188 43.308594 142.027344 46.074219 C 139.96875 47.941406 139.777344 51.09375 141.640625 53.152344 C 142.542969 54.246094 143.894531 54.824219 145.308594 54.824219 Z M 145.308594 54.824219 " fill-opacity="1" fill-rule="nonzero"/><path fill="#107b86" d="M 106.636719 106.496094 C 107.28125 106.753906 107.921875 106.882812 108.566406 106.882812 C 110.5625 106.882812 112.429688 105.726562 113.199219 103.730469 C 114.679688 100.125 116.289062 96.585938 118.027344 93.175781 C 119.3125 90.730469 118.347656 87.707031 115.839844 86.421875 C 113.394531 85.132812 110.367188 86.164062 109.082031 88.609375 C 107.214844 92.277344 105.414062 96.136719 103.871094 99.933594 C 102.839844 102.507812 104.0625 105.46875 106.636719 106.496094 Z M 106.636719 106.496094 " fill-opacity="1" fill-rule="nonzero"/><path fill="#107b86" d="M 171.4375 36.292969 C 172.273438 36.292969 173.109375 36.097656 173.882812 35.648438 C 177.226562 33.78125 180.765625 32.046875 184.304688 30.5 C 186.816406 29.34375 187.972656 26.382812 186.816406 23.875 C 185.65625 21.363281 182.695312 20.207031 180.1875 21.300781 C 176.390625 22.972656 172.660156 24.839844 168.992188 26.832031 C 166.546875 28.183594 165.707031 31.210938 166.996094 33.65625 C 167.960938 35.390625 169.699219 36.292969 171.4375 36.292969 Z M 171.4375 36.292969 " fill-opacity="1" fill-rule="nonzero"/><path fill="#107b86" d="M 293.503906 29.601562 C 297.042969 31.082031 300.582031 32.816406 303.992188 34.621094 C 304.765625 35.003906 305.539062 35.199219 306.3125 35.199219 C 308.113281 35.199219 309.851562 34.234375 310.75 32.496094 C 312.039062 30.050781 311.136719 27.027344 308.691406 25.738281 C 305.023438 23.808594 301.226562 22.007812 297.429688 20.398438 C 294.855469 19.304688 291.960938 20.527344 290.867188 23.035156 C 289.773438 25.546875 290.929688 28.507812 293.503906 29.601562 Z M 293.503906 29.601562 " fill-opacity="1" fill-rule="nonzero"/></svg>