<svg xmlns="http://www.w3.org/2000/svg" xmlns:xlink="http://www.w3.org/1999/xlink" width="640" zoomAndPan="magnify" viewBox="0 0 480 322.499991" height="430" preserveAspectRatio="xMidYMid meet" version="1.0"><defs><clipPath id="0db8ba3881"><path d="M 59.21875 85 L 213 85 L 213 312.09375 L 59.21875 312.09375 Z M 59.21875 85 " clip-rule="nonzero"/></clipPath><clipPath id="1a2bb5e496"><path d="M 116 14.054688 L 380 14.054688 L 380 163 L 116 163 Z M 116 14.054688 " clip-rule="nonzero"/></clipPath><clipPath id="df11ff6f04"><path d="M 148 256 L 415.664062 256 L 415.664062 311 L 148 311 Z M 148 256 " clip-rule="nonzero"/></clipPath></defs><g clip-path="url(#0db8ba3881)"><path fill="#107b86" d="M 151.734375 173.191406 C 153.25 175.007812 155.503906 176.050781 157.855469 176.054688 C 158.023438 176.054688 158.1875 176.046875 158.355469 176.035156 C 160.882812 175.878906 163.195312 174.515625 164.566406 172.382812 L 186.003906 138.984375 C 188.019531 135.839844 187.542969 131.820312 185.097656 129.21875 L 213 87.597656 L 209.6875 85.375 L 181.722656 127.089844 C 178.363281 126.007812 174.574219 127.257812 172.578125 130.371094 L 157.007812 154.625 L 136.054688 129.558594 C 134.671875 127.90625 132.757812 126.957031 130.769531 126.746094 C 130.007812 126.496094 129.191406 126.351562 128.339844 126.351562 L 89.820312 126.351562 C 89.742188 126.351562 89.664062 126.363281 89.585938 126.363281 C 87.804688 126.371094 84.746094 126.738281 81.265625 128.496094 C 75.902344 131.15625 70.121094 136.972656 66.074219 147.28125 C 61.980469 157.628906 59.234375 172.589844 59.21875 195.179688 C 59.21875 201.023438 59.40625 207.371094 59.816406 214.285156 C 60.0625 218.523438 63.578125 221.792969 67.769531 221.792969 C 67.925781 221.792969 68.085938 221.789062 68.246094 221.78125 C 72.640625 221.519531 75.996094 217.746094 75.738281 213.347656 C 75.347656 206.71875 75.171875 200.675781 75.171875 195.179688 C 75.136719 171.03125 78.660156 157.46875 82.117188 150.390625 L 82.117188 299.953125 C 82.117188 306.761719 87.636719 312.28125 94.445312 312.28125 C 101.25 312.28125 106.773438 306.761719 106.773438 299.953125 L 106.773438 209.953125 L 111.394531 209.953125 L 111.394531 299.953125 C 111.394531 306.761719 116.914062 312.28125 123.71875 312.28125 C 130.527344 312.28125 136.046875 306.761719 136.046875 299.953125 L 136.046875 154.425781 Z M 151.734375 173.191406 " fill-opacity="1" fill-rule="nonzero"/></g><path fill="#107b86" d="M 131.515625 98.238281 C 131.515625 98.972656 131.480469 99.703125 131.40625 100.4375 C 131.335938 101.167969 131.226562 101.894531 131.082031 102.613281 C 130.941406 103.332031 130.761719 104.046875 130.546875 104.75 C 130.335938 105.453125 130.089844 106.144531 129.808594 106.820312 C 129.527344 107.5 129.210938 108.164062 128.867188 108.8125 C 128.519531 109.460938 128.140625 110.089844 127.734375 110.699219 C 127.324219 111.3125 126.890625 111.898438 126.421875 112.46875 C 125.957031 113.035156 125.464844 113.578125 124.945312 114.097656 C 124.425781 114.617188 123.882812 115.113281 123.3125 115.578125 C 122.746094 116.042969 122.15625 116.480469 121.542969 116.890625 C 120.933594 117.296875 120.304688 117.675781 119.65625 118.019531 C 119.007812 118.367188 118.34375 118.679688 117.667969 118.960938 C 116.988281 119.242188 116.296875 119.492188 115.59375 119.703125 C 114.890625 119.917969 114.179688 120.09375 113.457031 120.238281 C 112.738281 120.382812 112.011719 120.488281 111.28125 120.5625 C 110.550781 120.632812 109.816406 120.671875 109.082031 120.671875 C 108.347656 120.671875 107.613281 120.632812 106.882812 120.5625 C 106.152344 120.488281 105.425781 120.382812 104.707031 120.238281 C 103.984375 120.09375 103.273438 119.917969 102.570312 119.703125 C 101.867188 119.492188 101.175781 119.242188 100.496094 118.960938 C 99.816406 118.679688 99.15625 118.367188 98.507812 118.019531 C 97.859375 117.675781 97.230469 117.296875 96.617188 116.890625 C 96.007812 116.480469 95.417969 116.042969 94.851562 115.578125 C 94.28125 115.113281 93.738281 114.617188 93.21875 114.097656 C 92.699219 113.578125 92.207031 113.035156 91.742188 112.46875 C 91.273438 111.898438 90.835938 111.3125 90.429688 110.699219 C 90.019531 110.089844 89.644531 109.460938 89.296875 108.8125 C 88.953125 108.164062 88.636719 107.5 88.355469 106.820312 C 88.074219 106.144531 87.828125 105.453125 87.613281 104.75 C 87.402344 104.046875 87.222656 103.332031 87.078125 102.613281 C 86.9375 101.894531 86.828125 101.167969 86.757812 100.4375 C 86.683594 99.703125 86.648438 98.972656 86.648438 98.238281 C 86.648438 97.503906 86.683594 96.769531 86.757812 96.039062 C 86.828125 95.308594 86.9375 94.582031 87.078125 93.859375 C 87.222656 93.140625 87.402344 92.429688 87.613281 91.726562 C 87.828125 91.023438 88.074219 90.332031 88.355469 89.652344 C 88.636719 88.972656 88.953125 88.308594 89.296875 87.660156 C 89.644531 87.015625 90.019531 86.382812 90.429688 85.773438 C 90.835938 85.164062 91.273438 84.574219 91.742188 84.003906 C 92.207031 83.4375 92.699219 82.894531 93.21875 82.375 C 93.738281 81.855469 94.28125 81.363281 94.851562 80.894531 C 95.417969 80.429688 96.007812 79.992188 96.617188 79.585938 C 97.230469 79.175781 97.859375 78.800781 98.507812 78.453125 C 99.15625 78.105469 99.816406 77.792969 100.496094 77.511719 C 101.175781 77.230469 101.867188 76.984375 102.570312 76.769531 C 103.273438 76.554688 103.984375 76.378906 104.707031 76.234375 C 105.425781 76.089844 106.152344 75.984375 106.882812 75.910156 C 107.613281 75.839844 108.347656 75.804688 109.082031 75.804688 C 109.816406 75.804688 110.550781 75.839844 111.28125 75.910156 C 112.011719 75.984375 112.738281 76.089844 113.457031 76.234375 C 114.179688 76.378906 114.890625 76.554688 115.59375 76.769531 C 116.296875 76.984375 116.988281 77.230469 117.667969 77.511719 C 118.34375 77.792969 119.007812 78.105469 119.65625 78.453125 C 120.304688 78.800781 120.933594 79.175781 121.542969 79.585938 C 122.15625 79.992188 122.746094 80.429688 123.3125 80.894531 C 123.882812 81.363281 124.425781 81.855469 124.945312 82.375 C 125.464844 82.894531 125.957031 83.4375 126.421875 84.003906 C 126.890625 84.574219 127.324219 85.164062 127.734375 85.773438 C 128.140625 86.382812 128.519531 87.015625 128.867188 87.660156 C 129.210938 88.308594 129.527344 88.972656 129.808594 89.652344 C 130.089844 90.332031 130.335938 91.023438 130.546875 91.726562 C 130.761719 92.429688 130.941406 93.140625 131.082031 93.859375 C 131.226562 94.582031 131.335938 95.308594 131.40625 96.039062 C 131.480469 96.769531 131.515625 97.503906 131.515625 98.238281 Z M 131.515625 98.238281 " fill-opacity="1" fill-rule="nonzero"/><g clip-path="url(#1a2bb5e496)"><path fill="#107b86" d="M 379.839844 14.167969 L 116.625 14.167969 L 116.625 64.492188 L 121.609375 64.492188 L 121.609375 19.152344 L 374.851562 19.152344 L 374.851562 157.738281 L 190.007812 157.738281 L 190.007812 162.726562 L 379.839844 162.726562 Z M 379.839844 14.167969 " fill-opacity="1" fill-rule="nonzero"/></g><path fill="#107b86" d="M 219.992188 227.925781 C 219.992188 228.660156 219.957031 229.390625 219.886719 230.125 C 219.8125 230.855469 219.707031 231.582031 219.5625 232.300781 C 219.417969 233.023438 219.242188 233.734375 219.027344 234.4375 C 218.8125 235.140625 218.566406 235.832031 218.285156 236.507812 C 218.003906 237.1875 217.691406 237.851562 217.34375 238.5 C 217 239.148438 216.621094 239.777344 216.214844 240.386719 C 215.804688 241 215.367188 241.589844 214.902344 242.15625 C 214.433594 242.722656 213.941406 243.269531 213.421875 243.789062 C 212.902344 244.308594 212.359375 244.800781 211.792969 245.265625 C 211.222656 245.730469 210.632812 246.167969 210.023438 246.578125 C 209.414062 246.984375 208.785156 247.363281 208.136719 247.710938 C 207.488281 248.054688 206.824219 248.367188 206.144531 248.648438 C 205.464844 248.929688 204.777344 249.179688 204.074219 249.390625 C 203.371094 249.605469 202.65625 249.785156 201.9375 249.925781 C 201.214844 250.070312 200.492188 250.179688 199.757812 250.25 C 199.027344 250.320312 198.296875 250.359375 197.5625 250.359375 C 196.824219 250.359375 196.09375 250.320312 195.363281 250.25 C 194.628906 250.179688 193.90625 250.070312 193.183594 249.925781 C 192.464844 249.785156 191.75 249.605469 191.046875 249.390625 C 190.34375 249.179688 189.65625 248.929688 188.976562 248.648438 C 188.296875 248.367188 187.632812 248.054688 186.984375 247.710938 C 186.335938 247.363281 185.707031 246.984375 185.097656 246.578125 C 184.488281 246.167969 183.898438 245.730469 183.328125 245.265625 C 182.761719 244.800781 182.21875 244.308594 181.699219 243.789062 C 181.179688 243.269531 180.6875 242.722656 180.21875 242.15625 C 179.753906 241.589844 179.316406 241 178.910156 240.386719 C 178.5 239.777344 178.121094 239.148438 177.777344 238.5 C 177.429688 237.851562 177.117188 237.1875 176.835938 236.507812 C 176.554688 235.832031 176.308594 235.140625 176.09375 234.4375 C 175.878906 233.734375 175.703125 233.023438 175.558594 232.300781 C 175.414062 231.582031 175.308594 230.855469 175.234375 230.125 C 175.164062 229.390625 175.128906 228.660156 175.128906 227.925781 C 175.128906 227.191406 175.164062 226.457031 175.234375 225.726562 C 175.308594 224.996094 175.414062 224.269531 175.558594 223.546875 C 175.703125 222.828125 175.878906 222.117188 176.09375 221.414062 C 176.308594 220.710938 176.554688 220.019531 176.835938 219.339844 C 177.117188 218.660156 177.429688 217.996094 177.777344 217.351562 C 178.121094 216.703125 178.5 216.074219 178.910156 215.460938 C 179.316406 214.851562 179.753906 214.261719 180.21875 213.695312 C 180.6875 213.125 181.179688 212.582031 181.699219 212.0625 C 182.21875 211.542969 182.761719 211.050781 183.328125 210.582031 C 183.898438 210.117188 184.488281 209.679688 185.097656 209.273438 C 185.707031 208.863281 186.335938 208.488281 186.984375 208.140625 C 187.632812 207.792969 188.296875 207.480469 188.976562 207.199219 C 189.65625 206.917969 190.34375 206.671875 191.046875 206.457031 C 191.75 206.246094 192.464844 206.066406 193.183594 205.921875 C 193.90625 205.78125 194.628906 205.671875 195.363281 205.601562 C 196.09375 205.527344 196.824219 205.492188 197.5625 205.492188 C 198.296875 205.492188 199.027344 205.527344 199.757812 205.601562 C 200.492188 205.671875 201.214844 205.78125 201.9375 205.921875 C 202.65625 206.066406 203.371094 206.246094 204.074219 206.457031 C 204.777344 206.671875 205.464844 206.917969 206.144531 207.199219 C 206.824219 207.480469 207.488281 207.792969 208.136719 208.140625 C 208.785156 208.488281 209.414062 208.863281 210.023438 209.273438 C 210.632812 209.679688 211.222656 210.117188 211.792969 210.582031 C 212.359375 211.050781 212.902344 211.542969 213.421875 212.0625 C 213.941406 212.582031 214.433594 213.125 214.902344 213.695312 C 215.367188 214.261719 215.804688 214.851562 216.214844 215.460938 C 216.621094 216.074219 217 216.703125 217.34375 217.351562 C 217.691406 217.996094 218.003906 218.660156 218.285156 219.339844 C 218.566406 220.019531 218.8125 220.710938 219.027344 221.414062 C 219.242188 222.117188 219.417969 222.828125 219.5625 223.546875 C 219.707031 224.269531 219.8125 224.996094 219.886719 225.726562 C 219.957031 226.457031 219.992188 227.191406 219.992188 227.925781 Z M 219.992188 227.925781 " fill-opacity="1" fill-rule="nonzero"/><path fill="#107b86" d="M 304.242188 227.925781 C 304.242188 228.660156 304.207031 229.390625 304.132812 230.125 C 304.0625 230.855469 303.953125 231.582031 303.8125 232.300781 C 303.667969 233.023438 303.488281 233.734375 303.277344 234.4375 C 303.0625 235.140625 302.816406 235.832031 302.535156 236.507812 C 302.253906 237.1875 301.941406 237.851562 301.59375 238.5 C 301.246094 239.148438 300.871094 239.777344 300.460938 240.386719 C 300.054688 241 299.617188 241.589844 299.148438 242.15625 C 298.683594 242.722656 298.191406 243.269531 297.671875 243.789062 C 297.152344 244.308594 296.609375 244.800781 296.039062 245.265625 C 295.472656 245.730469 294.882812 246.167969 294.273438 246.578125 C 293.660156 246.984375 293.03125 247.363281 292.382812 247.710938 C 291.734375 248.054688 291.074219 248.367188 290.394531 248.648438 C 289.714844 248.929688 289.023438 249.179688 288.320312 249.390625 C 287.617188 249.605469 286.90625 249.785156 286.1875 249.925781 C 285.464844 250.070312 284.738281 250.179688 284.007812 250.25 C 283.277344 250.320312 282.542969 250.359375 281.808594 250.359375 C 281.074219 250.359375 280.339844 250.320312 279.609375 250.25 C 278.878906 250.179688 278.152344 250.070312 277.433594 249.925781 C 276.710938 249.785156 276 249.605469 275.296875 249.390625 C 274.59375 249.179688 273.902344 248.929688 273.222656 248.648438 C 272.546875 248.367188 271.882812 248.054688 271.234375 247.710938 C 270.585938 247.363281 269.957031 246.984375 269.347656 246.578125 C 268.734375 246.167969 268.144531 245.730469 267.578125 245.265625 C 267.011719 244.800781 266.464844 244.308594 265.945312 243.789062 C 265.425781 243.269531 264.933594 242.722656 264.46875 242.15625 C 264.003906 241.589844 263.566406 241 263.15625 240.386719 C 262.75 239.777344 262.371094 239.148438 262.023438 238.5 C 261.679688 237.851562 261.363281 237.1875 261.082031 236.507812 C 260.800781 235.832031 260.554688 235.140625 260.34375 234.4375 C 260.128906 233.734375 259.949219 233.023438 259.808594 232.300781 C 259.664062 231.582031 259.554688 230.855469 259.484375 230.125 C 259.414062 229.390625 259.375 228.660156 259.375 227.925781 C 259.375 227.191406 259.414062 226.457031 259.484375 225.726562 C 259.554688 224.996094 259.664062 224.269531 259.808594 223.546875 C 259.949219 222.828125 260.128906 222.117188 260.34375 221.414062 C 260.554688 220.710938 260.800781 220.019531 261.082031 219.339844 C 261.363281 218.660156 261.679688 217.996094 262.023438 217.351562 C 262.371094 216.703125 262.75 216.074219 263.15625 215.460938 C 263.566406 214.851562 264.003906 214.261719 264.46875 213.695312 C 264.933594 213.125 265.425781 212.582031 265.945312 212.0625 C 266.464844 211.542969 267.011719 211.050781 267.578125 210.582031 C 268.144531 210.117188 268.734375 209.679688 269.347656 209.273438 C 269.957031 208.863281 270.585938 208.488281 271.234375 208.140625 C 271.882812 207.792969 272.546875 207.480469 273.222656 207.199219 C 273.902344 206.917969 274.59375 206.671875 275.296875 206.457031 C 276 206.246094 276.710938 206.066406 277.433594 205.921875 C 278.152344 205.78125 278.878906 205.671875 279.609375 205.601562 C 280.339844 205.527344 281.074219 205.492188 281.808594 205.492188 C 282.542969 205.492188 283.277344 205.527344 284.007812 205.601562 C 284.738281 205.671875 285.464844 205.78125 286.1875 205.921875 C 286.90625 206.066406 287.617188 206.246094 288.320312 206.457031 C 289.023438 206.671875 289.714844 206.917969 290.394531 207.199219 C 291.074219 207.480469 291.734375 207.792969 292.382812 208.140625 C 293.03125 208.488281 293.660156 208.863281 294.273438 209.273438 C 294.882812 209.679688 295.472656 210.117188 296.039062 210.582031 C 296.609375 211.050781 297.152344 211.542969 297.671875 212.0625 C 298.191406 212.582031 298.683594 213.125 299.148438 213.695312 C 299.617188 214.261719 300.054688 214.851562 300.460938 215.460938 C 300.871094 216.074219 301.246094 216.703125 301.59375 217.351562 C 301.941406 217.996094 302.253906 218.660156 302.535156 219.339844 C 302.816406 220.019531 303.0625 220.710938 303.277344 221.414062 C 303.488281 222.117188 303.667969 222.828125 303.8125 223.546875 C 303.953125 224.269531 304.0625 224.996094 304.132812 225.726562 C 304.207031 226.457031 304.242188 227.191406 304.242188 227.925781 Z M 304.242188 227.925781 " fill-opacity="1" fill-rule="nonzero"/><g clip-path="url(#df11ff6f04)"><path fill="#107b86" d="M 170.597656 280.085938 L 170.597656 310.320312 L 224.527344 310.320312 L 224.527344 280.128906 C 225.117188 281.339844 225.714844 282.730469 226.304688 284.351562 C 228.359375 290.050781 230.171875 298.433594 230.992188 310.320312 L 248.363281 310.320312 C 249.425781 295.027344 252.152344 285.589844 254.84375 280.082031 L 254.84375 310.320312 L 308.777344 310.320312 L 308.777344 280.128906 C 309.367188 281.339844 309.964844 282.730469 310.550781 284.351562 C 312.605469 290.050781 314.417969 298.433594 315.242188 310.320312 L 332.613281 310.320312 C 333.671875 295.027344 336.402344 285.589844 339.09375 280.082031 L 339.09375 310.320312 L 393.023438 310.320312 L 393.023438 280.128906 C 393.617188 281.339844 394.210938 282.730469 394.800781 284.351562 C 396.855469 290.050781 398.667969 298.433594 399.492188 310.320312 L 415.472656 310.320312 C 414.140625 289.179688 409.925781 276.375 404.515625 268.109375 C 401.238281 263.140625 397.410156 259.949219 393.867188 258.183594 C 390.460938 256.464844 387.464844 256.078125 385.667969 256.054688 C 385.550781 256.050781 385.4375 256.035156 385.316406 256.035156 L 346.796875 256.035156 C 346.664062 256.035156 346.535156 256.050781 346.402344 256.058594 C 344.601562 256.082031 341.625 256.476562 338.242188 258.183594 C 333.25 260.65625 327.902344 265.867188 323.921875 274.882812 C 322.789062 272.332031 321.5625 270.089844 320.265625 268.109375 C 316.988281 263.136719 313.160156 259.949219 309.617188 258.183594 C 306.210938 256.464844 303.214844 256.078125 301.417969 256.054688 C 301.300781 256.050781 301.1875 256.035156 301.066406 256.035156 L 262.546875 256.035156 C 262.414062 256.035156 262.285156 256.050781 262.152344 256.054688 C 260.351562 256.082031 257.375 256.476562 253.996094 258.183594 C 249.003906 260.65625 243.652344 265.867188 239.675781 274.882812 C 238.539062 272.332031 237.3125 270.085938 236.015625 268.105469 C 232.742188 263.136719 228.910156 259.949219 225.367188 258.183594 C 221.960938 256.460938 218.964844 256.078125 217.167969 256.054688 C 217.050781 256.050781 216.9375 256.035156 216.816406 256.035156 L 178.296875 256.035156 C 178.164062 256.035156 178.03125 256.050781 177.902344 256.054688 C 176.101562 256.082031 173.125 256.476562 169.746094 258.179688 C 164.378906 260.839844 158.597656 266.65625 154.554688 276.964844 C 151.410156 284.90625 149.066406 295.582031 148.136719 310.316406 L 164.113281 310.316406 C 165.175781 295.027344 167.90625 285.589844 170.597656 280.085938 Z M 170.597656 280.085938 " fill-opacity="1" fill-rule="nonzero"/></g><path fill="#107b86" d="M 388.492188 227.925781 C 388.492188 228.660156 388.453125 229.390625 388.382812 230.125 C 388.3125 230.855469 388.203125 231.582031 388.058594 232.300781 C 387.917969 233.023438 387.738281 233.734375 387.523438 234.4375 C 387.3125 235.140625 387.0625 235.832031 386.78125 236.507812 C 386.503906 237.1875 386.1875 237.851562 385.84375 238.5 C 385.496094 239.148438 385.117188 239.777344 384.710938 240.386719 C 384.300781 241 383.863281 241.589844 383.398438 242.15625 C 382.933594 242.722656 382.441406 243.269531 381.921875 243.789062 C 381.402344 244.308594 380.855469 244.800781 380.289062 245.265625 C 379.722656 245.730469 379.132812 246.167969 378.519531 246.578125 C 377.910156 246.984375 377.28125 247.363281 376.632812 247.710938 C 375.984375 248.054688 375.320312 248.367188 374.640625 248.648438 C 373.964844 248.929688 373.273438 249.179688 372.570312 249.390625 C 371.867188 249.605469 371.15625 249.785156 370.433594 249.925781 C 369.714844 250.070312 368.988281 250.179688 368.257812 250.25 C 367.527344 250.320312 366.792969 250.359375 366.058594 250.359375 C 365.324219 250.359375 364.589844 250.320312 363.859375 250.25 C 363.128906 250.179688 362.402344 250.070312 361.679688 249.925781 C 360.960938 249.785156 360.25 249.605469 359.546875 249.390625 C 358.84375 249.179688 358.152344 248.929688 357.472656 248.648438 C 356.792969 248.367188 356.128906 248.054688 355.484375 247.710938 C 354.835938 247.363281 354.207031 246.984375 353.59375 246.578125 C 352.984375 246.167969 352.394531 245.730469 351.828125 245.265625 C 351.257812 244.800781 350.714844 244.308594 350.195312 243.789062 C 349.675781 243.269531 349.183594 242.722656 348.714844 242.15625 C 348.25 241.589844 347.8125 241 347.40625 240.386719 C 346.996094 239.777344 346.621094 239.148438 346.273438 238.5 C 345.925781 237.851562 345.613281 237.1875 345.332031 236.507812 C 345.050781 235.832031 344.804688 235.140625 344.589844 234.4375 C 344.378906 233.734375 344.199219 233.023438 344.054688 232.300781 C 343.914062 231.582031 343.804688 230.855469 343.734375 230.125 C 343.660156 229.390625 343.625 228.660156 343.625 227.925781 C 343.625 227.191406 343.660156 226.457031 343.734375 225.726562 C 343.804688 224.996094 343.914062 224.269531 344.054688 223.546875 C 344.199219 222.828125 344.378906 222.117188 344.589844 221.414062 C 344.804688 220.710938 345.050781 220.019531 345.332031 219.339844 C 345.613281 218.660156 345.925781 217.996094 346.273438 217.351562 C 346.621094 216.703125 346.996094 216.074219 347.40625 215.460938 C 347.8125 214.851562 348.25 214.261719 348.714844 213.695312 C 349.183594 213.125 349.675781 212.582031 350.195312 212.0625 C 350.714844 211.542969 351.257812 211.050781 351.828125 210.582031 C 352.394531 210.117188 352.984375 209.679688 353.59375 209.273438 C 354.207031 208.863281 354.835938 208.488281 355.484375 208.140625 C 356.128906 207.792969 356.792969 207.480469 357.472656 207.199219 C 358.152344 206.917969 358.84375 206.671875 359.546875 206.457031 C 360.25 206.246094 360.960938 206.066406 361.679688 205.921875 C 362.402344 205.78125 363.128906 205.671875 363.859375 205.601562 C 364.589844 205.527344 365.324219 205.492188 366.058594 205.492188 C 366.792969 205.492188 367.527344 205.527344 368.257812 205.601562 C 368.988281 205.671875 369.714844 205.78125 370.433594 205.921875 C 371.15625 206.066406 371.867188 206.246094 372.570312 206.457031 C 373.273438 206.671875 373.964844 206.917969 374.640625 207.199219 C 375.320312 207.480469 375.984375 207.792969 376.632812 208.140625 C 377.28125 208.488281 377.910156 208.863281 378.519531 209.273438 C 379.132812 209.679688 379.722656 210.117188 380.289062 210.582031 C 380.855469 211.050781 381.402344 211.542969 381.921875 212.0625 C 382.441406 212.582031 382.933594 213.125 383.398438 213.695312 C 383.863281 214.261719 384.300781 214.851562 384.710938 215.460938 C 385.117188 216.074219 385.496094 216.703125 385.84375 217.351562 C 386.1875 217.996094 386.503906 218.660156 386.78125 219.339844 C 387.0625 220.019531 387.3125 220.710938 387.523438 221.414062 C 387.738281 222.117188 387.917969 222.828125 388.058594 223.546875 C 388.203125 224.269531 388.3125 224.996094 388.382812 225.726562 C 388.453125 226.457031 388.492188 227.191406 388.492188 227.925781 Z M 388.492188 227.925781 " fill-opacity="1" fill-rule="nonzero"/></svg>