<svg xmlns="http://www.w3.org/2000/svg" xmlns:xlink="http://www.w3.org/1999/xlink" width="640" zoomAndPan="magnify" viewBox="0 0 480 322.499991" height="430" preserveAspectRatio="xMidYMid meet" version="1.0"><defs><clipPath id="5e204dd2c6"><path d="M 163 3.507812 L 228 3.507812 L 228 68 L 163 68 Z M 163 3.507812 " clip-rule="nonzero"/></clipPath><clipPath id="7d3fbe9fe1"><path d="M 99.042969 65 L 380.605469 65 L 380.605469 318.765625 L 99.042969 318.765625 Z M 99.042969 65 " clip-rule="nonzero"/></clipPath></defs><g clip-path="url(#5e204dd2c6)"><path fill="#107b86" d="M 227.902344 35.78125 C 227.902344 36.832031 227.851562 37.878906 227.75 38.921875 C 227.648438 39.964844 227.492188 41 227.289062 42.03125 C 227.085938 43.058594 226.828125 44.074219 226.523438 45.078125 C 226.222656 46.082031 225.867188 47.066406 225.464844 48.035156 C 225.066406 49.003906 224.617188 49.953125 224.125 50.875 C 223.628906 51.800781 223.089844 52.699219 222.507812 53.570312 C 221.925781 54.445312 221.300781 55.285156 220.636719 56.097656 C 219.96875 56.90625 219.265625 57.683594 218.527344 58.425781 C 217.785156 59.164062 217.007812 59.871094 216.195312 60.535156 C 215.386719 61.199219 214.546875 61.824219 213.671875 62.40625 C 212.800781 62.988281 211.902344 63.527344 210.976562 64.023438 C 210.054688 64.515625 209.105469 64.964844 208.136719 65.367188 C 207.167969 65.765625 206.183594 66.121094 205.179688 66.425781 C 204.175781 66.730469 203.160156 66.984375 202.128906 67.1875 C 201.101562 67.390625 200.066406 67.546875 199.023438 67.648438 C 197.976562 67.75 196.933594 67.804688 195.882812 67.804688 C 194.835938 67.804688 193.789062 67.75 192.746094 67.648438 C 191.703125 67.546875 190.664062 67.390625 189.636719 67.1875 C 188.609375 66.984375 187.59375 66.730469 186.589844 66.425781 C 185.585938 66.121094 184.597656 65.765625 183.628906 65.367188 C 182.660156 64.964844 181.714844 64.515625 180.789062 64.023438 C 179.863281 63.527344 178.964844 62.988281 178.09375 62.40625 C 177.222656 61.824219 176.378906 61.199219 175.570312 60.535156 C 174.757812 59.871094 173.984375 59.164062 173.242188 58.425781 C 172.5 57.683594 171.796875 56.90625 171.132812 56.097656 C 170.464844 55.285156 169.84375 54.445312 169.257812 53.570312 C 168.675781 52.699219 168.136719 51.800781 167.644531 50.875 C 167.148438 49.953125 166.703125 49.003906 166.300781 48.035156 C 165.898438 47.066406 165.546875 46.082031 165.242188 45.078125 C 164.9375 44.074219 164.683594 43.058594 164.476562 42.03125 C 164.273438 41 164.121094 39.964844 164.015625 38.921875 C 163.914062 37.878906 163.863281 36.832031 163.863281 35.78125 C 163.863281 34.734375 163.914062 33.6875 164.015625 32.644531 C 164.121094 31.601562 164.273438 30.5625 164.476562 29.535156 C 164.683594 28.507812 164.9375 27.492188 165.242188 26.488281 C 165.546875 25.484375 165.898438 24.496094 166.300781 23.527344 C 166.703125 22.558594 167.148438 21.613281 167.644531 20.6875 C 168.136719 19.761719 168.675781 18.863281 169.257812 17.992188 C 169.84375 17.121094 170.464844 16.28125 171.132812 15.46875 C 171.796875 14.65625 172.5 13.882812 173.242188 13.140625 C 173.984375 12.398438 174.757812 11.695312 175.570312 11.03125 C 176.378906 10.363281 177.222656 9.742188 178.09375 9.160156 C 178.964844 8.574219 179.863281 8.039062 180.789062 7.542969 C 181.714844 7.046875 182.660156 6.601562 183.628906 6.199219 C 184.597656 5.796875 185.585938 5.445312 186.589844 5.140625 C 187.59375 4.835938 188.609375 4.582031 189.636719 4.378906 C 190.664062 4.171875 191.703125 4.019531 192.746094 3.917969 C 193.789062 3.8125 194.835938 3.761719 195.882812 3.761719 C 196.933594 3.761719 197.976562 3.8125 199.023438 3.917969 C 200.066406 4.019531 201.101562 4.171875 202.128906 4.378906 C 203.160156 4.582031 204.175781 4.835938 205.179688 5.140625 C 206.183594 5.445312 207.167969 5.796875 208.136719 6.199219 C 209.105469 6.601562 210.054688 7.046875 210.976562 7.542969 C 211.902344 8.039062 212.800781 8.574219 213.671875 9.160156 C 214.546875 9.742188 215.386719 10.363281 216.195312 11.03125 C 217.007812 11.695312 217.785156 12.398438 218.527344 13.140625 C 219.265625 13.882812 219.96875 14.65625 220.636719 15.46875 C 221.300781 16.28125 221.925781 17.121094 222.507812 17.992188 C 223.089844 18.863281 223.628906 19.761719 224.125 20.6875 C 224.617188 21.613281 225.066406 22.558594 225.464844 23.527344 C 225.867188 24.496094 226.222656 25.484375 226.523438 26.488281 C 226.828125 27.492188 227.085938 28.507812 227.289062 29.535156 C 227.492188 30.5625 227.648438 31.601562 227.75 32.644531 C 227.851562 33.6875 227.902344 34.734375 227.902344 35.78125 Z M 227.902344 35.78125 " fill-opacity="1" fill-rule="nonzero"/></g><path fill="#107b86" d="M 146.902344 189.507812 L 162.582031 163.527344 L 165.238281 165.132812 L 149.558594 191.109375 Z M 146.902344 189.507812 " fill-opacity="1" fill-rule="nonzero"/><path fill="#107b86" d="M 141.574219 186.296875 L 157.265625 160.324219 L 159.921875 161.929688 L 144.230469 187.902344 Z M 141.574219 186.296875 " fill-opacity="1" fill-rule="nonzero"/><g clip-path="url(#7d3fbe9fe1)"><path fill="#107b86" d="M 359 221.140625 L 354.359375 197.25 L 344.640625 147.238281 L 339.21875 119.335938 L 337.355469 109.734375 C 337.566406 109.992188 337.773438 110.230469 337.984375 110.5 C 346.949219 121.953125 357.691406 144.058594 363.179688 185.71875 C 363.804688 190.46875 368.164062 193.808594 372.910156 193.183594 C 377.65625 192.554688 381.003906 188.199219 380.375 183.453125 C 374.226562 136.839844 361.570312 111.25 349.371094 97.035156 C 338.125 83.867188 327.304688 81.007812 324.40625 80.542969 C 323.699219 80.367188 322.433594 80.066406 320.777344 79.726562 C 320.511719 92.496094 312.570312 102.75 302.792969 102.75 C 293.011719 102.75 285.074219 92.496094 284.808594 79.722656 C 283.148438 80.0625 281.882812 80.367188 281.175781 80.539062 C 278.277344 81.003906 267.457031 83.863281 256.203125 97.035156 C 250.410156 103.789062 244.511719 113.117188 239.257812 126.042969 L 235.789062 123.953125 C 236.980469 121.066406 238.21875 118.285156 239.519531 115.632812 C 239.496094 115.574219 239.472656 115.515625 239.453125 115.453125 C 239.476562 115.507812 239.5 115.5625 239.527344 115.617188 C 243.414062 107.691406 247.800781 100.824219 252.679688 95.027344 C 245.710938 84.042969 237.460938 76.496094 229.3125 71.691406 C 223.996094 68.53125 218.839844 66.515625 214.191406 65.230469 C 208.871094 68.546875 202.597656 70.472656 195.882812 70.472656 C 189.164062 70.472656 182.894531 68.546875 177.574219 65.226562 C 172.925781 66.515625 167.769531 68.53125 162.453125 71.691406 C 149.773438 79.167969 136.828125 93.234375 128.890625 116.671875 C 128.890625 116.675781 128.890625 116.675781 128.890625 116.675781 C 127.378906 121.101562 126.035156 125.875 124.875 130.996094 L 99.042969 173.757812 L 120.136719 186.503906 C 120.136719 186.570312 120.140625 186.632812 120.140625 186.695312 C 120.273438 192.507812 125.027344 197.125 130.8125 197.125 C 130.894531 197.125 130.976562 197.125 131.058594 197.121094 C 132.742188 197.085938 134.320312 196.644531 135.71875 195.921875 L 154.882812 207.5 L 155.316406 206.78125 L 159.675781 301.714844 C 159.675781 310.828125 167.066406 318.210938 176.171875 318.210938 C 185.28125 318.210938 192.667969 310.828125 192.667969 301.714844 L 192.667969 196.921875 C 193.734375 197.007812 194.800781 197.066406 195.882812 197.066406 C 196.960938 197.066406 198.03125 197.007812 199.09375 196.921875 L 199.09375 301.714844 C 199.09375 310.828125 206.480469 318.210938 215.589844 318.210938 C 224.695312 318.210938 232.085938 310.828125 232.085938 301.714844 L 236.902344 196.863281 C 235.90625 197.117188 234.871094 197.261719 233.808594 197.261719 C 233.242188 197.261719 232.675781 197.222656 232.121094 197.144531 C 227.066406 196.480469 223.105469 192.882812 221.691406 188.292969 L 221.570312 187.914062 C 221.136719 186.332031 221.003906 184.644531 221.230469 182.921875 C 221.476562 181.050781 221.75 179.222656 222.019531 177.390625 L 225.726562 179.632812 C 225.546875 180.890625 225.371094 182.15625 225.199219 183.445312 C 224.570312 188.199219 227.910156 192.550781 232.660156 193.179688 C 233.046875 193.230469 233.429688 193.257812 233.804688 193.257812 C 236.910156 193.257812 239.699219 191.574219 241.234375 189 L 244.664062 191.074219 L 251.601562 195.265625 L 244.96875 229.394531 C 244.96875 229.394531 255.523438 234.867188 273.875 238.242188 L 273.875 304.816406 C 273.875 312.183594 279.847656 318.160156 287.21875 318.160156 C 294.585938 318.160156 300.558594 312.183594 300.558594 304.816406 L 300.558594 240.804688 C 301.300781 240.816406 302.035156 240.828125 302.785156 240.828125 C 303.535156 240.828125 304.269531 240.816406 305.007812 240.804688 L 305.007812 304.816406 C 305.007812 312.183594 310.980469 318.160156 318.351562 318.160156 C 325.714844 318.160156 331.691406 312.183594 331.691406 304.816406 L 331.691406 238.242188 C 343.851562 236.003906 352.574219 232.855469 357.085938 230.980469 C 359.382812 230.023438 360.597656 229.394531 360.597656 229.394531 Z M 120.070312 181.792969 L 104.535156 172.40625 L 122.726562 142.292969 C 121.015625 153.214844 120.0625 165.558594 120.058594 179.5625 C 120.058594 180.296875 120.066406 181.046875 120.070312 181.792969 Z M 139.03125 193.246094 C 140.613281 191.335938 141.542969 188.878906 141.484375 186.207031 C 141.429688 183.945312 141.40625 181.730469 141.40625 179.5625 C 141.40625 165.746094 142.402344 153.941406 144.085938 143.886719 L 176.722656 163.597656 L 153.523438 202 Z M 183.207031 150.183594 L 190.507812 96.386719 C 192.242188 97.035156 194.058594 97.375 195.878906 97.375 L 195.890625 97.375 C 197.710938 97.375 199.527344 97.035156 201.257812 96.386719 L 208.558594 150.183594 L 195.886719 166.195312 Z M 230.714844 106.519531 L 211.367188 106.519531 L 211.367188 99.847656 L 230.714844 99.847656 Z M 234.578125 127.894531 L 237.777344 129.824219 C 233.242188 141.867188 229.269531 156.800781 226.371094 175.34375 L 211.382812 166.289062 Z M 268.230469 109.691406 L 266.367188 119.292969 L 265.320312 124.683594 C 265.097656 123.867188 264.867188 123.050781 264.636719 122.253906 C 262.339844 126.367188 260.015625 131.316406 257.785156 137.234375 L 254.3125 135.136719 C 258.851562 123.296875 263.78125 115.1875 268.230469 109.691406 Z M 252.90625 138.964844 L 283.566406 157.484375 L 260.371094 195.886719 L 242.484375 185.078125 C 245.066406 165.777344 248.773438 150.703125 252.90625 138.964844 Z M 195.882812 80.140625 L 200.953125 80.140625 L 203.488281 90.144531 L 203.101562 90.753906 C 201.011719 92.496094 198.453125 93.367188 195.878906 93.371094 C 193.308594 93.367188 190.753906 92.496094 188.664062 90.757812 L 188.277344 90.144531 L 190.8125 80.140625 Z M 152.316406 115.453125 C 151.039062 118.941406 150.039062 122.609375 149.34375 126.421875 C 148.601562 130.484375 148.203125 134.699219 148.203125 139.03125 C 148.203125 139.9375 148.226562 140.835938 148.257812 141.730469 L 145.648438 140.15625 L 144.855469 139.675781 C 146.039062 133.660156 147.46875 128.3125 149.085938 123.585938 C 149.085938 123.582031 149.089844 123.578125 149.089844 123.574219 C 150.105469 120.628906 151.191406 117.945312 152.316406 115.453125 Z M 310.988281 116.078125 L 330.332031 116.078125 L 330.332031 122.75 L 310.988281 122.75 Z M 310.988281 116.078125 " fill-opacity="1" fill-rule="nonzero"/></g><path fill="#107b86" d="M 253.75 183.394531 L 269.421875 157.410156 L 272.078125 159.015625 L 256.40625 184.996094 Z M 253.75 183.394531 " fill-opacity="1" fill-rule="nonzero"/><path fill="#107b86" d="M 248.417969 180.179688 L 264.117188 154.210938 L 266.773438 155.816406 L 251.074219 181.785156 Z M 248.417969 180.179688 " fill-opacity="1" fill-rule="nonzero"/><path fill="#107b86" d="M 318.339844 67.148438 C 324.371094 63.253906 328.964844 57.109375 330.71875 49.5625 C 334.308594 34.136719 324.71875 18.71875 309.292969 15.125 C 293.867188 11.535156 278.449219 21.128906 274.855469 36.554688 C 272.035156 48.671875 277.351562 60.78125 287.234375 67.160156 C 289.933594 68.902344 292.976562 70.21875 296.285156 70.992188 C 304.167969 72.824219 312.039062 71.214844 318.339844 67.148438 Z M 318.339844 67.148438 " fill-opacity="1" fill-rule="nonzero"/></svg>