<svg xmlns="http://www.w3.org/2000/svg" xmlns:xlink="http://www.w3.org/1999/xlink" width="640" zoomAndPan="magnify" viewBox="0 0 480 322.499991" height="430" preserveAspectRatio="xMidYMid meet" version="1.0"><defs><clipPath id="6c4d92ea7a"><path d="M 94.613281 10.730469 L 385.164062 10.730469 L 385.164062 311.015625 L 94.613281 311.015625 Z M 94.613281 10.730469 " clip-rule="nonzero"/></clipPath></defs><g clip-path="url(#6c4d92ea7a)"><path fill="#107b86" d="M 380.246094 10.730469 L 99.753906 10.730469 C 99.421875 10.730469 99.097656 10.761719 98.773438 10.828125 C 98.453125 10.890625 98.140625 10.984375 97.835938 11.113281 C 97.53125 11.238281 97.242188 11.390625 96.96875 11.574219 C 96.695312 11.757812 96.441406 11.964844 96.210938 12.199219 C 95.976562 12.429688 95.769531 12.683594 95.585938 12.957031 C 95.40625 13.230469 95.25 13.519531 95.125 13.824219 C 95 14.125 94.902344 14.4375 94.839844 14.761719 C 94.777344 15.085938 94.742188 15.410156 94.742188 15.738281 L 94.742188 306.25 C 94.742188 306.582031 94.777344 306.90625 94.839844 307.230469 C 94.902344 307.550781 95 307.863281 95.125 308.167969 C 95.25 308.472656 95.40625 308.761719 95.585938 309.035156 C 95.769531 309.308594 95.976562 309.5625 96.210938 309.792969 C 96.441406 310.027344 96.695312 310.234375 96.96875 310.417969 C 97.242188 310.597656 97.53125 310.753906 97.835938 310.878906 C 98.140625 311.003906 98.453125 311.101562 98.773438 311.164062 C 99.097656 311.226562 99.421875 311.261719 99.753906 311.261719 L 380.246094 311.261719 C 380.574219 311.261719 380.902344 311.226562 381.222656 311.164062 C 381.546875 311.101562 381.859375 311.003906 382.164062 310.878906 C 382.46875 310.753906 382.757812 310.597656 383.03125 310.417969 C 383.304688 310.234375 383.554688 310.027344 383.789062 309.792969 C 384.019531 309.5625 384.230469 309.308594 384.410156 309.035156 C 384.59375 308.761719 384.75 308.472656 384.875 308.167969 C 385 307.863281 385.09375 307.550781 385.160156 307.230469 C 385.222656 306.90625 385.253906 306.582031 385.257812 306.25 L 385.257812 15.738281 C 385.253906 15.410156 385.222656 15.085938 385.160156 14.761719 C 385.09375 14.4375 385 14.125 384.875 13.824219 C 384.75 13.519531 384.59375 13.230469 384.410156 12.957031 C 384.230469 12.683594 384.019531 12.429688 383.789062 12.199219 C 383.554688 11.964844 383.304688 11.757812 383.03125 11.574219 C 382.757812 11.390625 382.46875 11.238281 382.164062 11.113281 C 381.859375 10.984375 381.546875 10.890625 381.222656 10.828125 C 380.902344 10.761719 380.574219 10.730469 380.246094 10.730469 Z M 375.238281 20.746094 L 375.238281 40.785156 L 104.761719 40.785156 L 104.761719 20.746094 Z M 104.761719 301.242188 L 104.761719 50.800781 L 375.238281 50.800781 L 375.238281 301.242188 Z M 104.761719 301.242188 " fill-opacity="1" fill-rule="nonzero"/></g><path fill="#107b86" d="M 275.0625 181.03125 L 335.167969 181.03125 L 335.167969 191.046875 L 275.0625 191.046875 Z M 275.0625 181.03125 " fill-opacity="1" fill-rule="nonzero"/><path fill="#107b86" d="M 255.027344 201.066406 L 355.203125 201.066406 L 355.203125 211.082031 L 255.027344 211.082031 Z M 255.027344 201.066406 " fill-opacity="1" fill-rule="nonzero"/><path fill="#107b86" d="M 255.027344 216.09375 L 355.203125 216.09375 L 355.203125 226.109375 L 255.027344 226.109375 Z M 255.027344 216.09375 " fill-opacity="1" fill-rule="nonzero"/><path fill="#107b86" d="M 295.097656 70.835938 L 365.21875 70.835938 L 365.21875 80.855469 L 295.097656 80.855469 Z M 295.097656 70.835938 " fill-opacity="1" fill-rule="nonzero"/><path fill="#107b86" d="M 295.097656 85.863281 L 365.21875 85.863281 L 365.21875 95.878906 L 295.097656 95.878906 Z M 295.097656 85.863281 " fill-opacity="1" fill-rule="nonzero"/><path fill="#107b86" d="M 295.097656 120.925781 L 365.21875 120.925781 L 365.21875 130.941406 L 295.097656 130.941406 Z M 295.097656 120.925781 " fill-opacity="1" fill-rule="nonzero"/><path fill="#107b86" d="M 295.097656 135.953125 L 365.21875 135.953125 L 365.21875 145.96875 L 295.097656 145.96875 Z M 295.097656 135.953125 " fill-opacity="1" fill-rule="nonzero"/><path fill="#107b86" d="M 255.027344 231.117188 L 355.203125 231.117188 L 355.203125 241.136719 L 255.027344 241.136719 Z M 255.027344 231.117188 " fill-opacity="1" fill-rule="nonzero"/><path fill="#107b86" d="M 255.027344 246.144531 L 355.203125 246.144531 L 355.203125 256.164062 L 255.027344 256.164062 Z M 255.027344 246.144531 " fill-opacity="1" fill-rule="nonzero"/><path fill="#107b86" d="M 255.027344 261.171875 L 355.203125 261.171875 L 355.203125 271.191406 L 255.027344 271.191406 Z M 255.027344 261.171875 " fill-opacity="1" fill-rule="nonzero"/><path fill="#107b86" d="M 255.027344 276.199219 L 355.203125 276.199219 L 355.203125 286.214844 L 255.027344 286.214844 Z M 255.027344 276.199219 " fill-opacity="1" fill-rule="nonzero"/><path fill="#107b86" d="M 109.769531 25.757812 L 119.789062 25.757812 L 119.789062 35.773438 L 109.769531 35.773438 Z M 109.769531 25.757812 " fill-opacity="1" fill-rule="nonzero"/><path fill="#107b86" d="M 124.796875 25.757812 L 134.8125 25.757812 L 134.8125 35.773438 L 124.796875 35.773438 Z M 124.796875 25.757812 " fill-opacity="1" fill-rule="nonzero"/><path fill="#107b86" d="M 139.824219 25.757812 L 149.839844 25.757812 L 149.839844 35.773438 L 139.824219 35.773438 Z M 139.824219 25.757812 " fill-opacity="1" fill-rule="nonzero"/><path fill="#107b86" d="M 219.964844 60.820312 L 119.789062 60.820312 C 119.457031 60.820312 119.132812 60.851562 118.808594 60.914062 C 118.488281 60.980469 118.175781 61.074219 117.871094 61.199219 C 117.566406 61.324219 117.277344 61.480469 117.003906 61.664062 C 116.730469 61.84375 116.476562 62.054688 116.246094 62.285156 C 116.011719 62.519531 115.804688 62.769531 115.621094 63.042969 C 115.441406 63.316406 115.285156 63.605469 115.160156 63.910156 C 115.035156 64.214844 114.9375 64.527344 114.875 64.851562 C 114.8125 65.171875 114.777344 65.5 114.777344 65.828125 L 114.777344 166.003906 C 114.777344 166.332031 114.8125 166.660156 114.875 166.980469 C 114.9375 167.304688 115.035156 167.617188 115.160156 167.921875 C 115.285156 168.226562 115.441406 168.511719 115.621094 168.785156 C 115.804688 169.058594 116.011719 169.3125 116.246094 169.546875 C 116.476562 169.777344 116.730469 169.984375 117.003906 170.167969 C 117.277344 170.351562 117.566406 170.507812 117.871094 170.632812 C 118.175781 170.757812 118.488281 170.851562 118.808594 170.917969 C 119.132812 170.980469 119.457031 171.011719 119.789062 171.011719 L 219.964844 171.011719 C 220.292969 171.011719 220.617188 170.980469 220.941406 170.917969 C 221.265625 170.851562 221.578125 170.757812 221.882812 170.632812 C 222.183594 170.507812 222.472656 170.351562 222.746094 170.167969 C 223.019531 169.984375 223.273438 169.777344 223.507812 169.546875 C 223.738281 169.3125 223.945312 169.058594 224.128906 168.785156 C 224.3125 168.511719 224.464844 168.226562 224.59375 167.921875 C 224.71875 167.617188 224.8125 167.304688 224.875 166.980469 C 224.941406 166.660156 224.972656 166.332031 224.972656 166.003906 L 224.972656 65.828125 C 224.972656 65.5 224.941406 65.171875 224.875 64.851562 C 224.8125 64.527344 224.71875 64.214844 224.59375 63.910156 C 224.464844 63.605469 224.3125 63.316406 224.128906 63.042969 C 223.945312 62.769531 223.738281 62.519531 223.507812 62.285156 C 223.273438 62.054688 223.019531 61.84375 222.746094 61.664062 C 222.472656 61.480469 222.183594 61.324219 221.882812 61.199219 C 221.578125 61.074219 221.265625 60.980469 220.941406 60.914062 C 220.617188 60.851562 220.292969 60.820312 219.964844 60.820312 Z M 214.957031 160.996094 L 124.796875 160.996094 L 124.796875 70.835938 L 214.957031 70.835938 Z M 214.957031 160.996094 " fill-opacity="1" fill-rule="nonzero"/><path fill="#107b86" d="M 219.964844 181.03125 L 119.789062 181.03125 C 119.457031 181.03125 119.132812 181.0625 118.808594 181.128906 C 118.488281 181.191406 118.175781 181.285156 117.871094 181.410156 C 117.566406 181.539062 117.277344 181.691406 117.003906 181.875 C 116.730469 182.058594 116.476562 182.265625 116.246094 182.496094 C 116.011719 182.730469 115.804688 182.984375 115.621094 183.257812 C 115.441406 183.53125 115.285156 183.820312 115.160156 184.121094 C 115.035156 184.425781 114.9375 184.738281 114.875 185.0625 C 114.8125 185.386719 114.777344 185.710938 114.777344 186.039062 L 114.777344 286.214844 C 114.777344 286.546875 114.8125 286.871094 114.875 287.195312 C 114.9375 287.515625 115.035156 287.828125 115.160156 288.132812 C 115.285156 288.4375 115.441406 288.726562 115.621094 289 C 115.804688 289.273438 116.011719 289.527344 116.246094 289.757812 C 116.476562 289.992188 116.730469 290.199219 117.003906 290.382812 C 117.277344 290.5625 117.566406 290.71875 117.871094 290.84375 C 118.175781 290.96875 118.488281 291.066406 118.808594 291.128906 C 119.132812 291.191406 119.457031 291.226562 119.789062 291.226562 L 219.964844 291.226562 C 220.292969 291.226562 220.617188 291.191406 220.941406 291.128906 C 221.265625 291.066406 221.578125 290.96875 221.882812 290.84375 C 222.183594 290.71875 222.472656 290.5625 222.746094 290.382812 C 223.019531 290.199219 223.273438 289.992188 223.507812 289.757812 C 223.738281 289.527344 223.945312 289.273438 224.128906 289 C 224.3125 288.726562 224.464844 288.4375 224.59375 288.132812 C 224.71875 287.828125 224.8125 287.515625 224.875 287.195312 C 224.941406 286.871094 224.972656 286.546875 224.972656 286.214844 L 224.972656 186.039062 C 224.972656 185.710938 224.941406 185.386719 224.875 185.0625 C 224.8125 184.738281 224.71875 184.425781 224.59375 184.121094 C 224.464844 183.820312 224.3125 183.53125 224.128906 183.257812 C 223.945312 182.984375 223.738281 182.730469 223.507812 182.496094 C 223.273438 182.265625 223.019531 182.058594 222.746094 181.875 C 222.472656 181.691406 222.183594 181.539062 221.882812 181.410156 C 221.578125 181.285156 221.265625 181.191406 220.941406 181.128906 C 220.617188 181.0625 220.292969 181.03125 219.964844 181.03125 Z M 214.957031 281.207031 L 124.796875 281.207031 L 124.796875 191.046875 L 214.957031 191.046875 Z M 214.957031 281.207031 " fill-opacity="1" fill-rule="nonzero"/><path fill="#107b86" d="M 265.042969 105.898438 C 265.699219 105.898438 266.355469 105.867188 267.007812 105.800781 C 267.660156 105.738281 268.308594 105.640625 268.953125 105.511719 C 269.597656 105.386719 270.230469 105.226562 270.859375 105.035156 C 271.488281 104.84375 272.105469 104.625 272.710938 104.375 C 273.316406 104.121094 273.910156 103.839844 274.488281 103.53125 C 275.066406 103.222656 275.628906 102.886719 276.175781 102.523438 C 276.71875 102.15625 277.246094 101.765625 277.753906 101.351562 C 278.261719 100.933594 278.746094 100.492188 279.210938 100.03125 C 279.675781 99.566406 280.113281 99.082031 280.53125 98.574219 C 280.949219 98.066406 281.339844 97.539062 281.703125 96.992188 C 282.066406 96.449219 282.402344 95.886719 282.714844 95.308594 C 283.023438 94.730469 283.304688 94.136719 283.554688 93.53125 C 283.804688 92.921875 284.027344 92.308594 284.214844 91.679688 C 284.40625 91.050781 284.566406 90.414062 284.695312 89.773438 C 284.820312 89.128906 284.917969 88.480469 284.984375 87.828125 C 285.046875 87.171875 285.078125 86.519531 285.078125 85.863281 C 285.078125 85.207031 285.046875 84.550781 284.984375 83.898438 C 284.917969 83.246094 284.820312 82.597656 284.695312 81.953125 C 284.566406 81.3125 284.40625 80.675781 284.214844 80.046875 C 284.027344 79.417969 283.804688 78.800781 283.554688 78.195312 C 283.304688 77.589844 283.023438 76.996094 282.714844 76.417969 C 282.402344 75.839844 282.066406 75.277344 281.703125 74.730469 C 281.339844 74.1875 280.949219 73.660156 280.53125 73.152344 C 280.113281 72.644531 279.675781 72.160156 279.210938 71.695312 C 278.746094 71.230469 278.261719 70.792969 277.753906 70.375 C 277.246094 69.960938 276.71875 69.570312 276.175781 69.203125 C 275.628906 68.839844 275.066406 68.503906 274.488281 68.191406 C 273.910156 67.882812 273.316406 67.605469 272.710938 67.351562 C 272.105469 67.101562 271.488281 66.878906 270.859375 66.691406 C 270.230469 66.5 269.597656 66.339844 268.953125 66.210938 C 268.308594 66.085938 267.660156 65.988281 267.007812 65.925781 C 266.355469 65.859375 265.699219 65.828125 265.042969 65.828125 C 264.386719 65.828125 263.734375 65.859375 263.078125 65.925781 C 262.425781 65.988281 261.777344 66.085938 261.136719 66.210938 C 260.492188 66.339844 259.855469 66.5 259.226562 66.691406 C 258.601562 66.878906 257.984375 67.101562 257.375 67.351562 C 256.769531 67.605469 256.179688 67.882812 255.597656 68.191406 C 255.019531 68.503906 254.457031 68.839844 253.914062 69.203125 C 253.367188 69.570312 252.839844 69.960938 252.332031 70.375 C 251.828125 70.792969 251.339844 71.230469 250.875 71.695312 C 250.414062 72.160156 249.972656 72.644531 249.554688 73.152344 C 249.140625 73.660156 248.75 74.1875 248.386719 74.730469 C 248.019531 75.277344 247.683594 75.839844 247.375 76.417969 C 247.066406 76.996094 246.785156 77.589844 246.535156 78.195312 C 246.28125 78.800781 246.0625 79.417969 245.871094 80.046875 C 245.679688 80.675781 245.519531 81.3125 245.394531 81.953125 C 245.265625 82.597656 245.167969 83.246094 245.105469 83.898438 C 245.039062 84.550781 245.007812 85.207031 245.007812 85.863281 C 245.007812 86.519531 245.039062 87.171875 245.105469 87.828125 C 245.167969 88.480469 245.265625 89.128906 245.394531 89.773438 C 245.519531 90.414062 245.679688 91.050781 245.871094 91.679688 C 246.0625 92.308594 246.28125 92.921875 246.535156 93.53125 C 246.785156 94.136719 247.066406 94.730469 247.375 95.308594 C 247.683594 95.886719 248.019531 96.449219 248.386719 96.992188 C 248.75 97.539062 249.140625 98.066406 249.554688 98.574219 C 249.972656 99.082031 250.414062 99.566406 250.875 100.03125 C 251.339844 100.492188 251.828125 100.933594 252.332031 101.351562 C 252.839844 101.765625 253.367188 102.15625 253.914062 102.523438 C 254.457031 102.886719 255.019531 103.222656 255.597656 103.53125 C 256.179688 103.839844 256.769531 104.121094 257.375 104.375 C 257.984375 104.625 258.601562 104.84375 259.226562 105.035156 C 259.855469 105.226562 260.492188 105.386719 261.136719 105.511719 C 261.777344 105.640625 262.425781 105.738281 263.078125 105.800781 C 263.734375 105.867188 264.386719 105.898438 265.042969 105.898438 Z M 265.042969 75.84375 C 265.703125 75.84375 266.351562 75.910156 267 76.039062 C 267.644531 76.164062 268.269531 76.355469 268.878906 76.609375 C 269.484375 76.859375 270.0625 77.167969 270.609375 77.535156 C 271.15625 77.898438 271.664062 78.3125 272.128906 78.777344 C 272.59375 79.246094 273.007812 79.75 273.375 80.296875 C 273.738281 80.84375 274.046875 81.421875 274.300781 82.027344 C 274.550781 82.636719 274.742188 83.261719 274.867188 83.910156 C 274.996094 84.554688 275.0625 85.203125 275.0625 85.863281 C 275.0625 86.519531 274.996094 87.171875 274.867188 87.816406 C 274.742188 88.460938 274.550781 89.089844 274.300781 89.695312 C 274.046875 90.304688 273.738281 90.882812 273.375 91.429688 C 273.007812 91.976562 272.59375 92.480469 272.128906 92.945312 C 271.664062 93.410156 271.15625 93.828125 270.609375 94.191406 C 270.0625 94.558594 269.484375 94.867188 268.878906 95.117188 C 268.269531 95.371094 267.644531 95.558594 267 95.6875 C 266.351562 95.816406 265.703125 95.878906 265.042969 95.878906 C 264.386719 95.878906 263.734375 95.816406 263.089844 95.6875 C 262.445312 95.558594 261.816406 95.371094 261.210938 95.117188 C 260.601562 94.867188 260.023438 94.558594 259.476562 94.191406 C 258.929688 93.828125 258.425781 93.410156 257.960938 92.945312 C 257.496094 92.480469 257.078125 91.976562 256.714844 91.429688 C 256.347656 90.882812 256.039062 90.304688 255.789062 89.695312 C 255.535156 89.089844 255.347656 88.460938 255.21875 87.816406 C 255.089844 87.171875 255.027344 86.519531 255.027344 85.863281 C 255.027344 85.207031 255.089844 84.554688 255.21875 83.910156 C 255.347656 83.261719 255.535156 82.636719 255.789062 82.027344 C 256.039062 81.421875 256.347656 80.84375 256.714844 80.296875 C 257.078125 79.75 257.496094 79.246094 257.960938 78.777344 C 258.425781 78.3125 258.929688 77.898438 259.476562 77.535156 C 260.023438 77.167969 260.601562 76.859375 261.210938 76.609375 C 261.816406 76.355469 262.445312 76.164062 263.089844 76.039062 C 263.734375 75.910156 264.386719 75.84375 265.042969 75.84375 Z M 265.042969 75.84375 " fill-opacity="1" fill-rule="nonzero"/><path fill="#107b86" d="M 285.078125 135.953125 C 285.078125 135.296875 285.046875 134.640625 284.984375 133.988281 C 284.917969 133.335938 284.820312 132.6875 284.695312 132.042969 C 284.566406 131.398438 284.40625 130.761719 284.214844 130.136719 C 284.027344 129.507812 283.804688 128.890625 283.554688 128.285156 C 283.304688 127.679688 283.023438 127.085938 282.714844 126.507812 C 282.402344 125.929688 282.066406 125.367188 281.703125 124.820312 C 281.339844 124.273438 280.949219 123.75 280.53125 123.242188 C 280.113281 122.734375 279.675781 122.25 279.210938 121.785156 C 278.746094 121.320312 278.261719 120.878906 277.753906 120.464844 C 277.246094 120.046875 276.71875 119.65625 276.175781 119.292969 C 275.628906 118.929688 275.066406 118.589844 274.488281 118.28125 C 273.910156 117.972656 273.316406 117.691406 272.710938 117.441406 C 272.105469 117.191406 271.488281 116.96875 270.859375 116.777344 C 270.230469 116.589844 269.597656 116.429688 268.953125 116.300781 C 268.308594 116.171875 267.660156 116.078125 267.007812 116.011719 C 266.355469 115.949219 265.699219 115.914062 265.042969 115.914062 C 264.386719 115.914062 263.734375 115.949219 263.078125 116.011719 C 262.425781 116.078125 261.777344 116.171875 261.136719 116.300781 C 260.492188 116.429688 259.855469 116.589844 259.226562 116.777344 C 258.601562 116.96875 257.984375 117.191406 257.375 117.441406 C 256.769531 117.691406 256.179688 117.972656 255.597656 118.28125 C 255.019531 118.589844 254.457031 118.929688 253.914062 119.292969 C 253.367188 119.65625 252.839844 120.046875 252.332031 120.464844 C 251.828125 120.878906 251.339844 121.320312 250.875 121.785156 C 250.414062 122.25 249.972656 122.734375 249.554688 123.242188 C 249.140625 123.75 248.75 124.273438 248.386719 124.820312 C 248.019531 125.367188 247.683594 125.929688 247.375 126.507812 C 247.066406 127.085938 246.785156 127.679688 246.535156 128.285156 C 246.28125 128.890625 246.0625 129.507812 245.871094 130.136719 C 245.679688 130.761719 245.519531 131.398438 245.394531 132.042969 C 245.265625 132.6875 245.167969 133.335938 245.105469 133.988281 C 245.039062 134.640625 245.007812 135.296875 245.007812 135.953125 C 245.007812 136.605469 245.039062 137.261719 245.105469 137.914062 C 245.167969 138.566406 245.265625 139.214844 245.394531 139.859375 C 245.519531 140.503906 245.679688 141.140625 245.871094 141.765625 C 246.0625 142.394531 246.28125 143.011719 246.535156 143.617188 C 246.785156 144.226562 247.066406 144.816406 247.375 145.394531 C 247.683594 145.972656 248.019531 146.535156 248.386719 147.082031 C 248.75 147.628906 249.140625 148.152344 249.554688 148.660156 C 249.972656 149.167969 250.414062 149.65625 250.875 150.117188 C 251.339844 150.582031 251.828125 151.023438 252.332031 151.4375 C 252.839844 151.855469 253.367188 152.246094 253.914062 152.609375 C 254.457031 152.972656 255.019531 153.3125 255.597656 153.621094 C 256.179688 153.929688 256.769531 154.210938 257.375 154.460938 C 257.984375 154.710938 258.601562 154.933594 259.226562 155.125 C 259.855469 155.3125 260.492188 155.472656 261.136719 155.601562 C 261.777344 155.730469 262.425781 155.824219 263.078125 155.890625 C 263.734375 155.953125 264.386719 155.988281 265.042969 155.988281 C 265.699219 155.988281 266.355469 155.953125 267.007812 155.890625 C 267.660156 155.824219 268.308594 155.730469 268.953125 155.601562 C 269.597656 155.472656 270.230469 155.3125 270.859375 155.125 C 271.488281 154.933594 272.105469 154.710938 272.710938 154.460938 C 273.316406 154.210938 273.910156 153.929688 274.488281 153.621094 C 275.066406 153.3125 275.628906 152.972656 276.175781 152.609375 C 276.71875 152.246094 277.246094 151.855469 277.753906 151.4375 C 278.261719 151.023438 278.746094 150.582031 279.210938 150.117188 C 279.675781 149.65625 280.113281 149.167969 280.53125 148.660156 C 280.949219 148.152344 281.339844 147.628906 281.703125 147.082031 C 282.066406 146.535156 282.402344 145.972656 282.714844 145.394531 C 283.023438 144.816406 283.304688 144.226562 283.554688 143.617188 C 283.804688 143.011719 284.027344 142.394531 284.214844 141.765625 C 284.40625 141.140625 284.566406 140.503906 284.695312 139.859375 C 284.820312 139.214844 284.917969 138.566406 284.984375 137.914062 C 285.046875 137.261719 285.078125 136.605469 285.078125 135.953125 Z M 255.027344 135.953125 C 255.027344 135.292969 255.089844 134.640625 255.21875 133.996094 C 255.347656 133.351562 255.535156 132.726562 255.789062 132.117188 C 256.039062 131.511719 256.347656 130.933594 256.714844 130.386719 C 257.078125 129.839844 257.496094 129.332031 257.960938 128.867188 C 258.425781 128.402344 258.929688 127.988281 259.476562 127.621094 C 260.023438 127.257812 260.601562 126.949219 261.210938 126.695312 C 261.816406 126.445312 262.445312 126.253906 263.089844 126.125 C 263.734375 125.996094 264.386719 125.933594 265.042969 125.933594 C 265.703125 125.933594 266.351562 125.996094 267 126.125 C 267.644531 126.253906 268.269531 126.445312 268.878906 126.695312 C 269.484375 126.949219 270.0625 127.257812 270.609375 127.621094 C 271.15625 127.988281 271.664062 128.402344 272.128906 128.867188 C 272.59375 129.332031 273.007812 129.839844 273.375 130.386719 C 273.738281 130.933594 274.046875 131.511719 274.300781 132.117188 C 274.550781 132.726562 274.742188 133.351562 274.867188 133.996094 C 274.996094 134.640625 275.0625 135.292969 275.0625 135.953125 C 275.0625 136.609375 274.996094 137.261719 274.867188 137.90625 C 274.742188 138.550781 274.550781 139.175781 274.300781 139.785156 C 274.046875 140.390625 273.738281 140.96875 273.375 141.515625 C 273.007812 142.0625 272.59375 142.570312 272.128906 143.035156 C 271.664062 143.5 271.15625 143.914062 270.609375 144.28125 C 270.0625 144.644531 269.484375 144.953125 268.878906 145.207031 C 268.269531 145.457031 267.644531 145.648438 267 145.777344 C 266.351562 145.90625 265.703125 145.96875 265.042969 145.96875 C 264.386719 145.96875 263.734375 145.90625 263.089844 145.777344 C 262.445312 145.648438 261.816406 145.457031 261.210938 145.207031 C 260.601562 144.953125 260.023438 144.644531 259.476562 144.28125 C 258.929688 143.914062 258.425781 143.5 257.960938 143.035156 C 257.496094 142.570312 257.078125 142.0625 256.714844 141.515625 C 256.347656 140.96875 256.039062 140.390625 255.789062 139.785156 C 255.535156 139.175781 255.347656 138.550781 255.21875 137.90625 C 255.089844 137.261719 255.027344 136.609375 255.027344 135.953125 Z M 255.027344 135.953125 " fill-opacity="1" fill-rule="nonzero"/></svg>